<svg viewBox="0 0 1034 361" fill="none" xmlns="http://www.w3.org/2000/svg">
  <path fill-rule="evenodd" clip-rule="evenodd" d="M590.445 297.502l-1.059-1.496c-8.514-1.908-17.385-2.9-24.995-2.9-11.589 0-22.797 1.83-33.315 5.438-23.505 8.062-43.503 22.412-57.28 34.323l-9.529-102.763a73.36 73.36 0 0 1 8.889-7.748c9.98-7.394 20.955-11.866 32.619-13.292a36.717 36.717 0 0 1 4.434-.266c9.84 0 18.344 3.772 21.774 5.531l-7.976-11.348-4.322-6.152a55.192 55.192 0 0 0-9.476-.842c-1.952 0-3.954.112-5.989.361-34.27 4.189-53.22 29.439-53.22 29.439l12.533 135.159s30.346-36.098 71.701-50.284c9.966-3.419 19.916-4.744 29.159-4.744 11.099 0 21.184 1.91 29.076 4.398.724-6.495-.427-9.387-3.024-12.814zM633.451 175h-53.239s-18.475-.065-30.926 13.332l1.127 1.556 6.531 9.196c2.664-3.605 6.237-6.731 10.791-8.739 6.293-2.775 12.148-3.345 12.56-3.345H628.814l85.184 70.134c-14.528.012-29.826.192-38.214.192-30.661 0-49.547 11.924-60.729 23.631l.433.652c.765 1.019 3.727 5.232 5.847 11.643 9.504-11.62 26.055-22.956 54.464-22.956 19.216 0 74.025.014 74.025.014L633.451 175z" fill="#F9A825"/>
  <path fill-rule="evenodd" clip-rule="evenodd" d="M622.092 334.269c-5.373-3.578-7.082-10.145-5.226-20.074 2.984-15.949-5.462-27.441-6.226-28.439l-65.624-92.595c-2.212 4.053-7.877 6.542-16.446 5.067l67.247 95.65.054.075c4.461 5.887 5.421 11.136 3.803 20.799-3.056 18.261 3.628 26.973 9.773 31.067l4.95 3.298 2.221-8.919 17.663 2.192-12.189-8.121z" fill="#D32F2F"/>
  <path fill-rule="evenodd" clip-rule="evenodd" d="M13.65 194.602c5.81 1.16 13.943 1.451 24.108 1.451 29.916 0 58.09-10.746 58.09-44.147 0-30.789-26.431-44.15-57.51-44.15H13.652v86.846zm0-98.172h28.756c28.173 0 45.89-16.556 45.89-38.34 0-27.593-20.622-37.468-49.666-37.468-13.07 0-20.622.872-24.98 2.034v73.773zM0 13.07c10.747-2.614 24.688-4.066 39.21-4.066 24.399 0 40.373 5.228 51.41 15.975 7.842 8.133 11.908 18.589 11.908 32.24 0 20.04-14.231 36.887-33.691 43.857v.582c16.265 3.776 41.243 18.007 41.243 49.957 0 15.975-5.518 28.173-14.522 37.466-12.78 13.362-33.983 18.59-61.575 18.59-15.104 0-26.432-.872-33.983-1.743V13.071zM139.123 206.219h13.651V66.804h-13.651v139.415zm18.008-179.207c0 6.39-4.357 11.908-11.618 11.908-6.39 0-10.747-5.518-10.747-11.908s4.938-12.199 11.328-12.199c6.68 0 11.037 5.518 11.037 12.199zM206.217 152.486c0 3.195.581 6.68 1.162 10.166 6.099 21.202 24.107 35.144 45.891 35.144 31.949 0 50.248-26.141 50.248-62.447 0-31.949-17.427-60.413-49.086-60.413-20.332 0-39.792 14.232-46.472 37.467-.871 3.486-1.743 7.262-1.743 12.2v27.883zM192.566 0h13.651v92.653h.581c9.294-18.008 26.431-29.045 51.12-29.045 35.144 0 59.541 29.336 59.541 71.451 0 49.666-31.659 74.355-62.156 74.355-22.364 0-38.92-9.004-49.957-28.464h-.581l-.871 25.268h-12.49c.581-9.875 1.162-22.074 1.162-32.53V0zM345.63 206.219h13.651V0H345.63v206.219zM708.101 206.219h13.651V66.804h-13.651v139.415zM726.11 27.012c0 6.39-4.358 11.908-11.618 11.908-6.391 0-10.747-5.518-10.747-11.908s4.937-12.199 11.328-12.199c6.679 0 11.037 5.518 11.037 12.199zM761.544 108.628c0-13.941-.581-28.464-1.162-41.824h12.78l.581 28.173h.581c6.099-17.427 20.621-31.37 39.791-31.37 1.743 0 3.777.292 5.519.583v13.36c-2.033-.581-4.067-.581-6.681-.581-19.17 0-32.82 16.556-36.596 38.92-.581 4.067-1.162 8.714-1.162 13.361v76.969h-13.651v-97.591zM834.157 187.921c7.552 4.647 18.879 9.585 31.369 9.585 22.073 0 32.53-11.908 32.53-26.431 0-15.394-9.295-23.527-29.336-31.659-22.945-8.714-35.434-21.203-35.434-38.049 0-20.041 15.684-37.76 42.986-37.76 12.781 0 23.527 3.777 30.788 8.715l-5.518 11.328c-4.648-3.486-13.652-8.423-27.593-8.423-17.718 0-27.012 11.327-27.012 24.107 0 14.523 9.875 20.912 28.754 28.754 22.655 8.714 36.016 20.041 36.016 41.244 0 23.817-18.588 40.082-47.053 40.082-13.65 0-26.141-4.066-35.434-9.875l4.937-11.618zM960.208 36.016v30.788h39.791V77.84h-39.791v90.62c0 17.717 5.519 29.045 20.331 29.045 7.262 0 12.489-1.162 15.976-2.324l1.742 10.747c-4.648 2.033-11.037 3.485-19.46 3.485-10.166 0-18.589-3.485-23.818-10.166-6.389-7.26-8.712-18.878-8.712-33.111V77.841H922.74V66.804h23.527v-25.56l13.941-5.228zM604.121 163.946v-52h76v-12h-76v-78h83v-12h-97v154h14zM449.318 74.86c33.692 0 41.824 30.086 41.534 49.086h-88.006c2.324-21 15.684-49.086 46.472-49.086zm20.641 121.503c-4.284.536-9.175.796-14.832.796-28.754 0-53.152-17.213-53.152-62.213h102.819c.581-2 .581-4.591.581-8.367 0-20.041-8.714-62.999-54.314-62.999-36.016 0-62.738 29.06-62.738 75.531 0 40.24 24.118 69.268 62.981 70.268a100.941 100.941 0 0 1 18.655-13.016zM1015.48 4.462c-1.92 1.931-2.88 4.264-2.88 6.999 0 2.755.95 5.104 2.86 7.045 1.92 1.942 4.26 2.913 7 2.913 2.75 0 5.08-.971 7-2.913 1.92-1.941 2.88-4.29 2.88-7.045 0-2.735-.96-5.068-2.88-6.999-1.93-1.941-4.26-2.912-7-2.912-2.72 0-5.05.97-6.98 2.912zm15.12 15.156c-2.24 2.255-4.96 3.382-8.14 3.382-3.18 0-5.89-1.127-8.13-3.382-2.22-2.244-3.33-4.963-3.33-8.157 0-3.163 1.12-5.866 3.37-8.11C1016.6 1.117 1019.3 0 1022.46 0c3.18 0 5.9 1.117 8.14 3.35 2.25 2.234 3.37 4.938 3.37 8.11 0 3.184-1.12 5.903-3.37 8.158zm-5.97-12.51c-.56-.313-1.45-.47-2.69-.47h-1.89v4.572h2c.94 0 1.65-.094 2.12-.282.86-.344 1.3-1.002 1.3-1.972 0-.919-.28-1.535-.84-1.848zm-2.39-1.988c1.57 0 2.72.151 3.45.454 1.3.543 1.95 1.607 1.95 3.194 0 1.127-.41 1.957-1.23 2.49-.44.281-1.05.485-1.84.61 1 .156 1.72.569 2.18 1.237.46.668.69 1.32.69 1.957v.924c0 .292.01.605.03.94.02.333.06.552.11.657l.08.156h-2.08l-.03-.125a.574.574 0 0 1-.04-.14l-.04-.408v-1.002c0-1.461-.4-2.427-1.19-2.896-.47-.272-1.3-.408-2.48-.408h-1.75v4.98h-2.22V5.12h4.41z" fill="#0D47A1"/>
</svg>
