<svg viewBox="0 0 500 500" fill="none" xmlns="http://www.w3.org/2000/svg">
  <path fill-rule="evenodd" clip-rule="evenodd" d="M249.868 498.817c-33.607 0-66.21-6.583-96.902-19.564-29.645-12.539-56.269-30.489-79.131-53.352-22.863-22.863-40.813-49.486-53.352-79.131C7.501 316.078.92 283.475.92 249.868s6.582-66.21 19.564-96.902c12.539-29.645 30.49-56.268 53.352-79.131 22.863-22.863 49.486-40.813 79.131-53.352C183.658 7.501 216.261.92 249.868.92c33.608 0 66.211 6.582 96.903 19.564 29.644 12.539 56.268 30.49 79.13 53.352 22.863 22.862 40.813 49.486 53.352 79.13 12.982 30.693 19.564 63.295 19.564 96.903 0 33.607-6.582 66.21-19.564 96.902-12.539 29.645-30.489 56.268-53.352 79.131-22.862 22.862-49.486 40.813-79.13 53.351-30.692 12.982-63.295 19.565-96.903 19.565z" fill="#fff"/>
  <path fill-rule="evenodd" clip-rule="evenodd" d="M249.868 1.838c136.983 0 248.03 111.048 248.03 248.03 0 136.983-111.047 248.03-248.03 248.03-136.982-.001-248.03-111.047-248.03-248.03 0-136.982 111.048-248.03 248.03-248.03zm0-1.838c-33.731 0-66.454 6.607-97.26 19.637a249.892 249.892 0 0 0-42.444 23.038 251.629 251.629 0 0 0-36.98 30.51 251.608 251.608 0 0 0-30.509 36.979 249.854 249.854 0 0 0-23.038 42.444C6.607 183.414 0 216.137 0 249.868s6.607 66.454 19.637 97.26a249.863 249.863 0 0 0 23.038 42.445 251.688 251.688 0 0 0 30.51 36.978 251.592 251.592 0 0 0 36.979 30.51 249.79 249.79 0 0 0 42.444 23.038c30.806 13.03 63.529 19.637 97.26 19.637 33.732 0 66.455-6.607 97.261-19.637a249.828 249.828 0 0 0 42.444-23.038 251.546 251.546 0 0 0 36.978-30.51 251.65 251.65 0 0 0 30.51-36.978 249.799 249.799 0 0 0 23.038-42.445c13.03-30.806 19.637-63.529 19.637-97.26s-6.607-66.454-19.637-97.26a249.828 249.828 0 0 0-23.038-42.444 251.592 251.592 0 0 0-30.51-36.98 251.583 251.583 0 0 0-36.978-30.509 249.892 249.892 0 0 0-42.444-23.038C316.323 6.607 283.6 0 249.868 0z" fill="#212121"/>
  <path fill-rule="evenodd" clip-rule="evenodd" d="M249.868 454.511c-27.628 0-54.428-5.411-79.656-16.082-24.369-10.307-46.254-25.062-65.048-43.856-18.795-18.794-33.55-40.68-43.857-65.048-10.671-25.229-16.082-52.029-16.082-79.656 0-27.627 5.411-54.427 16.082-79.656 10.307-24.369 25.062-46.255 43.857-65.049 18.794-18.795 40.679-33.55 65.048-43.857 25.228-10.671 52.029-16.082 79.656-16.082 27.626 0 54.426 5.41 79.656 16.082 24.368 10.307 46.254 25.062 65.048 43.857 18.794 18.794 33.55 40.679 43.857 65.049 10.671 25.229 16.082 52.029 16.082 79.656 0 27.627-5.411 54.427-16.082 79.656-10.307 24.368-25.063 46.254-43.857 65.048-18.794 18.794-40.68 33.549-65.048 43.856-25.23 10.671-52.029 16.082-79.656 16.082z" fill="#fff"/>
  <path fill-rule="evenodd" clip-rule="evenodd" d="M249.868 46.145c27.503 0 54.182 5.386 79.297 16.008a203.741 203.741 0 0 1 34.605 18.783 205.177 205.177 0 0 1 30.152 24.878 205.297 205.297 0 0 1 24.878 30.151 203.865 203.865 0 0 1 18.783 34.605c10.623 25.115 16.009 51.795 16.009 79.299 0 27.503-5.386 54.182-16.009 79.297a203.827 203.827 0 0 1-18.783 34.605 205.297 205.297 0 0 1-24.878 30.151A205.126 205.126 0 0 1 363.77 418.8a203.752 203.752 0 0 1-34.605 18.782c-25.115 10.623-51.794 16.009-79.297 16.009-27.504 0-54.183-5.386-79.298-16.009a203.752 203.752 0 0 1-34.605-18.782 205.179 205.179 0 0 1-30.152-24.878 205.223 205.223 0 0 1-24.877-30.151 203.735 203.735 0 0 1-18.783-34.605c-10.623-25.115-16.009-51.794-16.009-79.297 0-27.504 5.386-54.184 16.009-79.299a203.773 203.773 0 0 1 18.783-34.605 205.223 205.223 0 0 1 24.877-30.151 205.204 205.204 0 0 1 30.152-24.878 203.741 203.741 0 0 1 34.605-18.783c25.115-10.622 51.794-16.008 79.298-16.008zm0-1.839c-113.529 0-205.561 92.033-205.561 205.563 0 113.528 92.032 205.561 205.561 205.561 113.528 0 205.562-92.033 205.562-205.561 0-113.53-92.034-205.563-205.562-205.563z" fill="#212121"/>
  <path fill-rule="evenodd" clip-rule="evenodd" d="M186.582 188.434c3.757-2.165 8.104-.786 11.03 1.977 2.847 2.688 5.78 5.291 8.719 7.876a605.283 605.283 0 0 0 4.698 4.088l.921.788c.107.091.209.177.286.245.858.726 1.717 1.453 2.578 2.175a620.218 620.218 0 0 0 13.052 10.67 604.392 604.392 0 0 0 23.274 17.64 14.627 14.627 0 0 1 1.866-.295c-.824.071-2.307.194-1.483.123.616-.055 1.233-.11 1.848-.168a400.75 400.75 0 0 0 6.556-.665 547.37 547.37 0 0 0 22.678-2.949c10.088-1.53 20.143-3.311 30.112-5.49 5.224-1.142 10.431-2.373 15.597-3.756a276.366 276.366 0 0 0 7.701-2.166c3.263-.975 6.746-1.809 9.797.45 17.289 12.798 36.471 23.459 55.685 33.015a438.05 438.05 0 0 0 4.666 2.292 447.686 447.686 0 0 0 6.904 3.229 443.184 443.184 0 0 0 14.265 6.23 462.34 462.34 0 0 0 7.165 2.901c.966-10.773.999-21.78.023-32.931-8.922-101.982-98.827-177.422-200.809-168.499-96.604 8.451-169.389 89.573-169.212 184.79a1230.741 1230.741 0 0 0 122.083-61.57z" fill="#2196F3"/>
  <path fill-rule="evenodd" clip-rule="evenodd" d="M389.472 266.355c-17.295-8.733-34.625-18.296-50.429-29.638-18.119 5.315-36.762 8.865-55.431 11.571-3.112.451-6.227.876-9.347 1.28.996.632 1.991 1.26 2.991 1.883 9.314 5.81 18.843 11.298 28.664 16.207.78.391 1.559.779 2.341 1.16a198.604 198.604 0 0 0 3.725 1.756 234.192 234.192 0 0 0 7.053 3.11 204.822 204.822 0 0 0 14.649 5.528 9.061 9.061 0 0 1 3.182 1.852c-43.216-1.799-86.281-26.154-95.789-31.845-17.856-12.801-35.282-26.54-51.533-41.369a1199.086 1199.086 0 0 1-30.738 16.943 1235.306 1235.306 0 0 1-93.256 44.709c10.639 100.211 99.651 173.84 200.468 165.02 84.326-7.378 150.503-70.126 165.845-149.286-14.438-5.564-28.585-11.909-42.395-18.881z" fill="#8BC34A"/>
  <path fill-rule="evenodd" clip-rule="evenodd" d="M345.814 33.125l-1.763 20.35 15.045-13.96 2.75 1.322-9.445 19.634-1.869-.9 8.161-16.966-.055-.026-14.871 13.739-1.76-.847 1.7-20.075-.055-.026-8.162 16.966-1.87-.9 9.445-19.633 2.749 1.322zM385.732 63.683a10.744 10.744 0 0 1 3.757-1.63c1.321-.286 2.68-.27 4.077.05 1.397.32 2.764 1.011 4.1 2.076 1.337 1.065 2.313 2.24 2.929 3.524.615 1.284.93 2.601.946 3.953a10.75 10.75 0 0 1-.75 4.026 14.294 14.294 0 0 1-2.18 3.764c-.939 1.178-2 2.166-3.182 2.966-1.184.8-2.433 1.34-3.748 1.618-1.314.278-2.667.261-4.055-.052-1.389-.314-2.752-1.003-4.088-2.067-1.337-1.065-2.317-2.243-2.941-3.533-.623-1.29-.946-2.607-.968-3.951-.021-1.344.225-2.682.741-4.014a14.306 14.306 0 0 1 2.18-3.764 14.324 14.324 0 0 1 3.182-2.966zm-3.367 7.286a9.372 9.372 0 0 0-.775 3.324 7.366 7.366 0 0 0 .634 3.294c.469 1.076 1.268 2.064 2.397 2.964 1.13.9 2.268 1.455 3.414 1.666a7.416 7.416 0 0 0 3.34-.128 9.388 9.388 0 0 0 3.066-1.498 13.13 13.13 0 0 0 2.547-2.437 13.08 13.08 0 0 0 1.817-3.04 9.429 9.429 0 0 0 .766-3.311 7.447 7.447 0 0 0-.621-3.285c-.462-1.07-1.257-2.054-2.386-2.954-1.13-.9-2.272-1.459-3.425-1.676a7.378 7.378 0 0 0-3.353.119 9.394 9.394 0 0 0-3.056 1.485 13.087 13.087 0 0 0-2.557 2.45 13.118 13.118 0 0 0-1.808 3.028zM429.474 95.312l-10.453 8.524c-.977.797-1.719 1.585-2.225 2.366-.506.78-.802 1.559-.888 2.338-.087.78.023 1.557.327 2.333.304.776.772 1.549 1.401 2.322.643.788 1.313 1.409 2.013 1.863a4.826 4.826 0 0 0 2.218.79c.781.072 1.604-.062 2.47-.4.865-.338 1.787-.906 2.765-1.703l10.452-8.524 1.312 1.608-10.808 8.813a10.574 10.574 0 0 1-2.77 1.648 6.986 6.986 0 0 1-2.99.51c-1.015-.053-2.029-.354-3.042-.906-1.014-.551-2.003-1.418-2.967-2.6-.952-1.167-1.595-2.302-1.931-3.406-.337-1.104-.428-2.158-.276-3.162a6.995 6.995 0 0 1 1.101-2.827 10.601 10.601 0 0 1 2.172-2.382l10.808-8.813 1.311 1.608zM458.131 136.78l-10.649 19.684.028.054 16.417-8.376.943 1.848-19.407 9.902-1.054-2.066 10.648-19.684-.028-.054-16.417 8.377-.943-1.849 19.407-9.902 1.055 2.066zM480.639 195.589l-1.707.467-2.004-7.329-19.309 5.28-.547-2.001 19.308-5.28-1.995-7.299 1.707-.467 4.547 16.629zM486.114 232.616l-21.063 10.202-.172-2.221 6.549-3.171-.766-9.887-6.957-2.093-.17-2.191 22.399 7.049.18 2.312zm-12.976 3.974l10.81-5.061-11.472-3.488.662 8.549zM485.536 273.808l-21.688-2.084.198-2.066 21.688 2.084-.198 2.066zM479.439 308.731l-21.2 7.172-.017.058 17.729 5.04-.567 1.995-20.958-5.957.635-2.23 21.199-7.171.017-.059-17.729-5.039.567-1.996 20.958 5.956-.634 2.231zM84.494 398.192a10.754 10.754 0 0 1 3.93-1.155c1.345-.122 2.691.062 4.039.551 1.347.489 2.618 1.345 3.813 2.566 1.195 1.222 2.019 2.507 2.472 3.857.453 1.35.603 2.697.452 4.04a10.744 10.744 0 0 1-1.24 3.903 14.294 14.294 0 0 1-2.627 3.467 14.288 14.288 0 0 1-3.524 2.551c-1.273.648-2.579 1.029-3.918 1.144-1.339.114-2.678-.069-4.018-.551-1.34-.482-2.608-1.333-3.803-2.555-1.195-1.221-2.023-2.511-2.482-3.868-.46-1.357-.618-2.704-.474-4.04.144-1.337.553-2.633 1.229-3.892a14.318 14.318 0 0 1 2.627-3.468 14.322 14.322 0 0 1 3.524-2.55zm-4.24 6.816a9.37 9.37 0 0 0-1.178 3.202 7.376 7.376 0 0 0 .223 3.347c.333 1.126 1.004 2.205 2.014 3.237 1.01 1.032 2.07 1.724 3.182 2.074 1.11.35 2.22.445 3.33.285a9.383 9.383 0 0 0 3.228-1.109 13.121 13.121 0 0 0 2.828-2.106 13.103 13.103 0 0 0 2.177-2.792 9.411 9.411 0 0 0 1.168-3.192 7.424 7.424 0 0 0-.212-3.336c-.326-1.118-.994-2.194-2.004-3.226-1.01-1.033-2.074-1.727-3.192-2.085a7.362 7.362 0 0 0-3.342-.295 9.37 9.37 0 0 0-3.216 1.098 13.016 13.016 0 0 0-2.84 2.116 13.135 13.135 0 0 0-2.165 2.782zM129.742 428.736l-7.195 11.407c-.673 1.067-1.125 2.05-1.356 2.951-.231.9-.264 1.734-.098 2.5a4.841 4.841 0 0 0 1.053 2.107c.535.638 1.224 1.223 2.068 1.755.86.543 1.693.918 2.5 1.125a4.836 4.836 0 0 0 2.355.043c.763-.181 1.5-.569 2.213-1.166.713-.597 1.406-1.427 2.079-2.494l7.195-11.409 1.755 1.107-7.439 11.795a10.587 10.587 0 0 1-2.101 2.445 6.993 6.993 0 0 1-2.673 1.435c-.979.273-2.036.31-3.172.11-1.137-.2-2.351-.707-3.641-1.521-1.274-.803-2.245-1.674-2.915-2.614-.67-.939-1.093-1.909-1.267-2.909a6.97 6.97 0 0 1 .143-3.031 10.62 10.62 0 0 1 1.301-2.948l7.439-11.796 1.756 1.108zM185.978 455.76l-.592 1.668-7.16-2.541-6.694 18.865-1.956-.694 6.694-18.865-7.132-2.531.592-1.668 16.248 5.766zM225.746 463.886a9.515 9.515 0 0 1 2.49.639 6.182 6.182 0 0 1 1.968 1.268c.54.526.944 1.169 1.211 1.929.267.76.342 1.624.224 2.594-.165 1.373-.663 2.521-1.492 3.446-.829.925-1.957 1.444-3.385 1.558l-.008.061c.695.187 1.258.444 1.69.773.431.329.768.723 1.01 1.182.241.46.394.975.458 1.546.064.572.077 1.183.04 1.834-.024.366-.058.813-.101 1.34a21.743 21.743 0 0 0-.071 1.605c-.004.543.031 1.06.105 1.55.074.491.206.881.397 1.17l-2.272-.275a2.64 2.64 0 0 1-.199-.777c-.035-.3-.049-.61-.041-.926.008-.317.019-.628.036-.934.016-.305.027-.57.034-.795.053-.772.079-1.542.08-2.31a6.32 6.32 0 0 0-.33-2.1 3.608 3.608 0 0 0-1.098-1.593c-.512-.431-1.255-.684-2.229-.761l-7.816-.944-1.161 9.603-2.06-.249 2.614-21.63 9.906 1.196zm-1.392 10.252a5.57 5.57 0 0 0 1.822-.072 4.485 4.485 0 0 0 1.585-.654c.468-.312.859-.71 1.174-1.195.314-.484.512-1.06.593-1.726.161-1.333-.096-2.429-.771-3.29-.675-.86-1.8-1.385-3.375-1.575l-7.695-.93-1.029 8.512 7.696.93zM279.642 463.328l.176 1.762-12.905 1.286.781 7.835 12.085-1.205.176 1.761-12.085 1.204.853 8.563 13.057-1.302.176 1.762-15.122 1.507-2.161-21.68 14.969-1.493zM318.839 453.935l14.96 17.997-2.114.7-4.65-5.596-9.414 3.118-.362 7.256-2.085.69 1.463-23.436 2.202-.729zm6.973 11.642l-7.509-9.278-.631 11.974 8.14-2.696zM369.842 434.055a6.143 6.143 0 0 0-2.169-.623 6.828 6.828 0 0 0-2.226.163 7.31 7.31 0 0 0-2.122.886c-1.233.754-2.148 1.635-2.747 2.644a7.393 7.393 0 0 0-1.035 3.192 9.37 9.37 0 0 0 .35 3.379 13.05 13.05 0 0 0 1.427 3.241 13.107 13.107 0 0 0 2.226 2.734 9.353 9.353 0 0 0 2.857 1.866 7.361 7.361 0 0 0 3.312.532c1.172-.073 2.374-.486 3.606-1.239.868-.53 1.554-1.164 2.057-1.901a6.5 6.5 0 0 0 1.016-2.374 7.663 7.663 0 0 0 .07-2.636 9.24 9.24 0 0 0-.826-2.696l1.77-1.082c.579 1.219.942 2.417 1.087 3.591.146 1.175.085 2.285-.181 3.331a8.046 8.046 0 0 1-1.423 2.908c-.682.894-1.569 1.675-2.662 2.344-1.458.891-2.9 1.409-4.326 1.553-1.426.145-2.774-.003-4.044-.442-1.27-.44-2.443-1.129-3.518-2.069a14.271 14.271 0 0 1-2.791-3.337 14.258 14.258 0 0 1-1.698-4.005c-.346-1.386-.429-2.748-.246-4.088.183-1.34.663-2.61 1.441-3.814.779-1.203 1.897-2.25 3.355-3.142a10.18 10.18 0 0 1 2.829-1.193 8.795 8.795 0 0 1 2.999-.242 7.913 7.913 0 0 1 2.872.837c.916.465 1.733 1.146 2.448 2.044l-1.77 1.082a6.982 6.982 0 0 0-1.938-1.444zM396.89 407.35l6.66 6.717 9.188-9.11-6.66-6.717 1.473-1.461 15.341 15.472-1.474 1.461-7.434-7.498-9.188 9.11 7.434 7.497-1.473 1.461-15.341-15.472 1.474-1.46zM24.825 308.898a6.14 6.14 0 0 0-1.17 1.931 6.807 6.807 0 0 0-.425 2.19 7.327 7.327 0 0 0 .3 2.28c.405 1.387 1.016 2.501 1.834 3.343a7.378 7.378 0 0 0 2.809 1.835 9.412 9.412 0 0 0 3.354.547 13.12 13.12 0 0 0 3.5-.529 13.114 13.114 0 0 0 3.223-1.434 9.355 9.355 0 0 0 2.548-2.269 7.375 7.375 0 0 0 1.38-3.057c.237-1.15.153-2.418-.252-3.804-.285-.977-.717-1.804-1.297-2.484a6.509 6.509 0 0 0-2.025-1.601 7.668 7.668 0 0 0-2.526-.757 9.216 9.216 0 0 0-2.818.091l-.581-1.992c1.328-.239 2.58-.276 3.75-.109 1.172.166 2.228.515 3.167 1.047a8.025 8.025 0 0 1 2.435 2.134c.684.892 1.205 1.953 1.565 3.183.479 1.64.601 3.167.367 4.581-.233 1.415-.728 2.676-1.485 3.787-.757 1.111-1.73 2.063-2.918 2.855a14.295 14.295 0 0 1-3.95 1.821 14.332 14.332 0 0 1-4.31.59 10.75 10.75 0 0 1-4.01-.832c-1.245-.527-2.346-1.323-3.304-2.389-.958-1.067-1.676-2.42-2.155-4.06-.29-.996-.427-2.01-.41-3.043.016-1.033.2-2.019.55-2.959a7.918 7.918 0 0 1 1.56-2.552c.689-.763 1.56-1.372 2.613-1.829l.581 1.992a6.996 6.996 0 0 0-1.9 1.493zM13.579 266.486l21.089-10.146.166 2.222-6.557 3.152.74 9.89 6.95 2.111.164 2.191-22.38-7.108-.172-2.312zm12.985-3.94l-10.823 5.033 11.463 3.518-.64-8.551zM15.25 217.097a9.456 9.456 0 0 1 .66-2.483 6.155 6.155 0 0 1 1.286-1.956 4.927 4.927 0 0 1 1.94-1.194c.761-.26 1.627-.328 2.595-.202 1.372.178 2.516.687 3.433 1.524.917.837 1.427 1.97 1.528 3.398l.06.008c.193-.693.455-1.253.788-1.682.333-.429.73-.762 1.192-1a4.361 4.361 0 0 1 1.55-.445 11.003 11.003 0 0 1 1.834-.023c.366.027.812.065 1.34.113.527.048 1.062.077 1.603.085a9.827 9.827 0 0 0 1.55-.091c.492-.069.883-.198 1.174-.386l-.295 2.27a2.64 2.64 0 0 1-.779.191 6.45 6.45 0 0 1-.927.033c-.316-.01-.627-.024-.932-.044-.306-.019-.57-.032-.795-.041a34.424 34.424 0 0 0-2.31-.1 6.3 6.3 0 0 0-2.102.311 3.606 3.606 0 0 0-1.603 1.085c-.435.507-.695 1.248-.78 2.221l-1.015 7.807 9.592 1.247-.267 2.058-21.606-2.808 1.286-9.896zm10.238 1.485a5.551 5.551 0 0 0-.055-1.823 4.48 4.48 0 0 0-.64-1.591 4.121 4.121 0 0 0-1.184-1.185c-.482-.319-1.056-.522-1.722-.608-1.331-.173-2.43.074-3.296.741-.866.667-1.402 1.787-1.606 3.361l-.999 7.686 8.504 1.105.998-7.686zM26.986 169.497c.322-.922.744-1.712 1.265-2.37a5.587 5.587 0 0 1 1.827-1.526 5.397 5.397 0 0 1 2.292-.589c.83-.033 1.706.112 2.627.435.922.322 1.697.755 2.326 1.298a5.394 5.394 0 0 1 1.425 1.889c.32.716.48 1.493.477 2.333-.003.839-.166 1.72-.488 2.641l-2.509 7.173 8.814 3.083-.685 1.959-20.566-7.195 3.195-9.131zm9.93 3.959c.477-1.364.517-2.589.122-3.675-.396-1.087-1.304-1.879-2.725-2.376-1.421-.497-2.626-.444-3.612.159-.987.603-1.719 1.586-2.196 2.949l-2.358 6.74 8.411 2.943 2.358-6.74zM46.117 129.012l23.115 3.661-1.128 1.921-7.186-1.14-5.02 8.553 4.513 5.692-1.112 1.895-14.356-18.582 1.174-2zm12.92 4.152l-11.764-2.022 7.423 9.416 4.34-7.394zM77.323 87.37l1.331 1.165-5.006 5.716 15.058 13.189-1.367 1.561-15.058-13.19-4.987 5.693-1.33-1.166 11.359-12.969zM101.687 64.96l5.717 7.536 10.308-7.819-5.717-7.537 1.654-1.254 13.167 17.359-1.654 1.254-6.38-8.412-10.308 7.82 6.38 8.411-1.653 1.254-13.167-17.358 1.653-1.254zM143.968 37.944l9.839 19.44-1.851.937-9.839-19.44 1.851-.937zM182.804 22.637l14.455 18.405-2.133.642-4.493-5.724-9.497 2.856-.563 7.243-2.104.632 2.114-23.386 2.221-.668zm6.648 11.83l-7.249-9.483-.963 11.952 8.212-2.469zM223.839 14.34l14.172 17.32.061-.006-1.522-18.368 2.068-.17 1.799 21.712-2.311.192-14.173-17.32-.061.005 1.522 18.368-2.068.172-1.798-21.714 2.311-.191z" fill="#000"/>
</svg>
