<svg viewBox="0 0 351 73" fill="none" xmlns="http://www.w3.org/2000/svg">
  <path fill-rule="evenodd" clip-rule="evenodd" d="M18.354 16.765c-2.334 0-4.398.108-6.192.324-1.794.216-3.371.67-4.733 1.362-1.361.691-2.582 1.696-3.663 3.015-1.08 1.318-2.075 3.08-2.982 5.284-.087.173-.184.227-.292.162-.108-.065-.206-.227-.292-.486a31.04 31.04 0 0 1 1.362-3.404 19.11 19.11 0 0 1 1.783-3.048 11.72 11.72 0 0 1 2.236-2.366 5.996 5.996 0 0 1 2.724-1.232c1.08-.216 2.29-.314 3.63-.292 1.34.022 2.68.033 4.02.033 1.254 0 2.507.01 3.76.032 1.254.022 2.508.032 3.761.032h2.788c3.458-.043 6.225-.626 8.3-1.75.648-.346 1.296-.865 1.944-1.556.649-.692.973-1.448.973-2.27 0-.216-.022-.367-.065-.453-.043-.044-.065-.108-.065-.195 0-.173.065-.26.195-.26.043 0 .108.044.194.13.519.562.908 1.124 1.167 1.686.13.173.195.432.195.778 0 .26-.087.562-.26.908-.734 1.21-1.826 2.075-3.274 2.593-1.448.52-3.21.822-5.284.908-.735.043-1.513.054-2.334.033a23.991 23.991 0 0 0-2.204.032c-.606 0-1.06.216-1.362.648a243.368 243.368 0 0 0-6.71 10.763 405.512 405.512 0 0 0-5.609 9.855 18.232 18.232 0 0 0-.94 2.043c-.238.626-.378 1.2-.421 1.718 0 .346.043.68.13 1.005.086.324.28.605.583.843.302.237.745.432 1.329.583.583.151 1.35.227 2.302.227h.778c.302 0 .561-.022.778-.065.13.173.065.346-.195.519-.735.086-1.556.14-2.464.162-.907.022-1.75.032-2.528.032-.649 0-1.265-.01-1.848-.032a5.572 5.572 0 0 1-1.556-.26c-.454-.15-.821-.377-1.102-.68-.281-.303-.422-.735-.422-1.297 0-.346.087-.735.26-1.167.172-.432.41-.886.713-1.361a589.854 589.854 0 0 0 7.034-11.768c1.146-1.967 2.259-3.89 3.34-5.77a162.27 162.27 0 0 0 2.982-5.415c.216-.389.108-.583-.324-.583h-2.14zm24.249 16.922a13.221 13.221 0 0 1-2.69 2.69 5.817 5.817 0 0 1-3.6 1.2c-.734 0-1.458-.183-2.171-.55-.713-.368-1.286-.92-1.718-1.654-.303.692-.692 1.48-1.167 2.367a22.636 22.636 0 0 1-1.686 2.658 16.636 16.636 0 0 1-2.172 2.431c-.8.735-1.653 1.34-2.561 1.816-.778.345-1.427.518-1.945.518-1.556 0-2.334-.691-2.334-2.074 0-.779.14-1.578.421-2.4.281-.82.638-1.62 1.07-2.398a22.46 22.46 0 0 1 1.394-2.205c.497-.691.962-1.253 1.394-1.686a13.53 13.53 0 0 1 3.112-2.528 8.99 8.99 0 0 1 3.76-1.232c.087-.346.217-.746.39-1.2.172-.453.475-.724.907-.81l.649-.13c.216-.043.41-.108.583-.194a.365.365 0 0 1 .39-.033c.129.065.15.184.064.357-.303.476-.53 1.08-.68 1.815a11.902 11.902 0 0 0-.228 2.4c0 1.21.227 2.204.681 2.982.454.778 1.243 1.167 2.367 1.167 1.123 0 2.14-.367 3.047-1.102a11.82 11.82 0 0 0 2.27-2.4c.086-.215.226-.28.42-.194.195.087.206.216.033.39zm-10.698.454a10.285 10.285 0 0 1-.195-1.361 17.987 17.987 0 0 1-.064-1.492c0-.216-.087-.324-.26-.324-.475 0-.972.162-1.49.486a8.248 8.248 0 0 0-1.557 1.297 19.952 19.952 0 0 0-1.556 1.848 23.033 23.033 0 0 0-1.427 2.14 24.022 24.022 0 0 0-1.523 3.08c-.454 1.102-.66 2.15-.616 3.144 0 .302.054.583.162.843.108.26.357.389.746.389.735 0 1.534-.41 2.399-1.232a19.361 19.361 0 0 0 2.463-2.885 23.317 23.317 0 0 0 1.978-3.34c.54-1.123.854-1.988.94-2.593zm22.304 26.583l.194-.13c.519.26 1.102.454 1.75.584a9.59 9.59 0 0 0 1.881.194c1.47 0 2.918-.4 4.344-1.2 1.427-.799 2.799-1.825 4.117-3.079a32.212 32.212 0 0 0 3.76-4.311 87.587 87.587 0 0 0 3.307-4.83 73.169 73.169 0 0 0 2.724-4.637c.8-1.49 1.48-2.755 2.042-3.792 0-.346-.13-.39-.39-.13-.388.346-1.026.864-1.912 1.556-.886.692-1.945 1.372-3.177 2.042-1.232.67-2.615 1.265-4.15 1.783a14.981 14.981 0 0 1-4.83.778c-3.155 0-5.543-.659-7.164-1.977-1.621-1.319-2.431-3.123-2.431-5.414 0-.908.259-2.248.778-4.02.518-1.772 1.383-3.674 2.593-5.705 1.21-2.032 2.799-4.01 4.766-5.933 1.966-1.924 4.398-3.49 7.294-4.7a23.278 23.278 0 0 1 5.154-1.427c1.708-.26 3.274-.39 4.7-.39.736 0 1.535.044 2.4.13.864.087 1.707.227 2.528.422.822.195 1.578.465 2.27.81.691.346 1.231.757 1.62 1.232-.172.735-.442 1.632-.81 2.691a35.555 35.555 0 0 1-1.07 2.756l-.454.13-.064-.195c.086-.26.15-.519.194-.778.043-.26.065-.54.065-.843 0-.778-.227-1.513-.68-2.205-.455-.691-1.07-1.296-1.849-1.815-.778-.519-1.685-.919-2.723-1.2a12.604 12.604 0 0 0-3.306-.42c-2.205 0-4.258.464-6.16 1.393a19.266 19.266 0 0 0-5.187 3.728c-.95.908-1.966 2.086-3.047 3.534a42.155 42.155 0 0 0-3.015 4.668 33.556 33.556 0 0 0-2.302 5.025c-.605 1.685-.907 3.242-.907 4.668 0 1.729.583 3.047 1.75 3.955 1.167.908 2.853 1.362 5.057 1.362 1.902 0 3.804-.4 5.706-1.2a24.249 24.249 0 0 0 5.22-2.982 23.121 23.121 0 0 0 4.116-3.955c1.168-1.448 1.989-2.82 2.464-4.117.173-.433.249-.757.227-.973-.022-.216-.27-.324-.746-.324-.734.043-1.599.108-2.593.194-.994.087-2.075.173-3.242.26l-.194-.065.194-.713c.865 0 1.826-.022 2.885-.065 1.06-.044 2.118-.098 3.177-.162a32.938 32.938 0 0 0 3.048-.324 41.85 41.85 0 0 0 2.626-.487c.172.13.172.324 0 .584-.692.173-1.167.378-1.427.616-.26.237-.54.659-.843 1.264-.82 1.6-1.761 3.425-2.82 5.479a248.386 248.386 0 0 1-3.307 6.192 110.992 110.992 0 0 1-3.468 5.867c-1.167 1.837-2.27 3.34-3.307 4.506-.432.52-1.048 1.19-1.848 2.01-.8.822-1.761 1.61-2.885 2.367-1.124.756-2.42 1.415-3.89 1.977-1.47.562-3.113.843-4.928.843-.605 0-1.21-.043-1.815-.13a9.341 9.341 0 0 1-1.945-.518l-.065-.454zm54.462-27.037a13.197 13.197 0 0 1-2.69 2.69 5.82 5.82 0 0 1-3.599 1.2c-.735 0-1.459-.183-2.172-.55-.713-.368-1.286-.92-1.718-1.654a33.41 33.41 0 0 1-1.167 2.367 22.636 22.636 0 0 1-1.686 2.658 16.624 16.624 0 0 1-2.172 2.431c-.8.735-1.653 1.34-2.56 1.816-.779.345-1.427.518-1.946.518-1.556 0-2.334-.691-2.334-2.074 0-.779.14-1.578.421-2.4.281-.82.638-1.62 1.07-2.398.433-.778.897-1.513 1.394-2.205.497-.691.962-1.253 1.394-1.686a13.531 13.531 0 0 1 3.112-2.528 8.99 8.99 0 0 1 3.76-1.232 10.8 10.8 0 0 1 .39-1.2c.173-.453.475-.724.908-.81l.648-.13c.216-.043.411-.108.583-.194.13-.087.26-.097.389-.033.13.065.152.184.065.357-.302.476-.529 1.08-.68 1.815a11.864 11.864 0 0 0-.227 2.4c0 1.21.227 2.204.68 2.982.454.778 1.243 1.167 2.367 1.167 1.124 0 2.14-.367 3.047-1.102a11.805 11.805 0 0 0 2.269-2.4c.087-.215.227-.28.422-.194.194.087.205.216.032.39zm-10.698.454a10.284 10.284 0 0 1-.194-1.361 17.987 17.987 0 0 1-.065-1.492c0-.216-.086-.324-.26-.324-.475 0-.972.162-1.49.486a8.248 8.248 0 0 0-1.557 1.297 19.952 19.952 0 0 0-1.556 1.848 22.993 22.993 0 0 0-1.426 2.14 24.022 24.022 0 0 0-1.524 3.08c-.454 1.102-.659 2.15-.616 3.144 0 .302.054.583.162.843.108.26.357.389.746.389.735 0 1.534-.41 2.399-1.232a19.356 19.356 0 0 0 2.464-2.885 23.308 23.308 0 0 0 1.977-3.34c.54-1.123.854-1.988.94-2.593zm46.099-32.548c0 .26-.13.519-.389.778-.259.26-.432.627-.519 1.102-.086.303-.237.454-.454.454a.866.866 0 0 1-.389-.097c-.129-.065-.291-.14-.486-.227a3.958 3.958 0 0 0-.713-.227c-.281-.065-.681-.097-1.199-.097-.735 0-1.47.097-2.205.292a7 7 0 0 0-2.01.875c-1.21.778-2.518 1.88-3.922 3.307a35.125 35.125 0 0 0-3.858 4.668c-2.896 4.15-5.436 8.029-7.619 11.638-2.182 3.61-4.009 6.84-5.478 9.693-1.47 2.853-2.572 5.284-3.307 7.294-.735 2.01-1.102 3.49-1.102 4.441 0 .735.162 1.34.486 1.816.324.475.854.713 1.589.713 1.167 0 2.28-.367 3.339-1.102 1.059-.735 2.064-1.654 3.015-2.756a24.152 24.152 0 0 0 2.593-3.663 55.515 55.515 0 0 0 2.01-3.76c.087-.173.227-.238.421-.195.195.043.184.216-.032.519a51.438 51.438 0 0 1-2.496 4.441c-.886 1.405-1.816 2.637-2.788 3.696-.973 1.059-1.988 1.89-3.047 2.496-1.059.605-2.108.908-3.145.908-1.167 0-2.032-.314-2.593-.94-.562-.627-.843-1.438-.843-2.432 0-1.037.205-2.15.616-3.339.41-1.189 1.048-2.647 1.912-4.376a97.166 97.166 0 0 1-3.177 3.695c-.907.994-1.707 1.772-2.399 2.334-.691.562-1.286.962-1.783 1.2-.497.238-.94.356-1.329.356-.605 0-1.016-.162-1.232-.486-.216-.324-.324-.745-.324-1.264 0-.39.108-.897.324-1.524a8.599 8.599 0 0 1 .908-1.848c1.599-2.593 3.382-4.711 5.349-6.354 1.967-1.642 4.398-2.723 7.294-3.241 2.075-3.631 4.063-6.895 5.965-9.79a104.19 104.19 0 0 1 6.224-8.494c1.859-2.334 3.707-4.388 5.544-6.16 1.837-1.772 3.728-3.112 5.673-4.02 1.47-.691 2.745-1.037 3.825-1.037.519 0 .941.065 1.265.195.324.13.486.302.486.518zm-29.501 29.76c-1.642.043-2.906.357-3.792.94a10.216 10.216 0 0 0-2.367 2.172c-1.643 2.032-2.81 3.772-3.501 5.22-.692 1.448-1.038 2.517-1.038 3.209 0 .216.087.367.26.454.173.086.302.13.389.13.302 0 .854-.325 1.653-.973.8-.648 1.686-1.524 2.658-2.626.973-1.102 1.978-2.388 3.015-3.858a31.292 31.292 0 0 0 2.723-4.668zM168.645 3.02c0 .648-.022 1.08-.065 1.296-.043.216-.129.26-.259.13a8.981 8.981 0 0 0-.875-.746c-.368-.28-1.005-.421-1.913-.421-.778 0-1.491.043-2.14.13a8.64 8.64 0 0 0-1.977.518c-.67.26-1.373.616-2.107 1.07-.735.454-1.556 1.07-2.464 1.848-1.297 1.08-2.702 2.669-4.215 4.765a115.63 115.63 0 0 0-4.571 6.873 146.941 146.941 0 0 0-4.376 7.586 375.08 375.08 0 0 0-3.631 6.905 56.24 56.24 0 0 0-1.134 2.431c-.411.93-.778 1.859-1.103 2.788-.324.93-.594 1.794-.81 2.594-.216.8-.324 1.394-.324 1.783 0 1.167.389 1.75 1.167 1.75.475 0 1.016-.227 1.621-.68.605-.454 1.188-1.103 1.75-1.946.562-.842 1.038-1.88 1.427-3.112.389-1.232.583-2.626.583-4.182 0-.518-.032-.94-.097-1.264a4.754 4.754 0 0 0-.227-.81c0-.26.13-.519.389-.778.173-.173.389-.379.648-.616.26-.238.497-.422.714-.551.129 0 .216.043.259.13 0 .864.162 1.588.486 2.171a4.4 4.4 0 0 0 1.232 1.427 5.183 5.183 0 0 0 1.621.81c.584.173 1.135.26 1.653.26.735 0 1.535-.12 2.399-.357.865-.238 1.751-.638 2.659-1.2.216-.13.356-.118.421.033s-.011.27-.227.356c-1.383.735-2.647 1.275-3.793 1.621-1.145.346-2.215.519-3.209.519-.822 0-1.567-.184-2.237-.551-.67-.367-1.178-.789-1.524-1.264 0 1.642-.27 3.133-.81 4.473-.541 1.34-1.2 2.475-1.978 3.404-.778.93-1.621 1.654-2.528 2.172-.908.519-1.729.778-2.464.778-.692 0-1.264-.216-1.718-.648-.454-.432-.681-1.102-.681-2.01 0-.692.151-1.535.454-2.529.302-.994.681-1.999 1.134-3.014a62.018 62.018 0 0 1 1.394-2.918c.476-.93.865-1.675 1.167-2.237a180.542 180.542 0 0 1 3.761-6.613 137.89 137.89 0 0 1 4.247-6.678 92.011 92.011 0 0 1 4.733-6.387 55.165 55.165 0 0 1 5.284-5.673 44.519 44.519 0 0 1 1.977-1.686c.8-.648 1.654-1.264 2.562-1.848a17.809 17.809 0 0 1 2.755-1.458c.929-.39 1.783-.584 2.561-.584s1.372.205 1.783.616c.411.41.616.918.616 1.524zm-2.204 33.974a30.628 30.628 0 0 1-2.626 2.82 24.733 24.733 0 0 1-3.307 2.659c-1.189.8-2.42 1.448-3.696 1.945-1.275.497-2.539.745-3.793.745-2.031 0-3.047-.907-3.047-2.723 0-1.21.314-2.518.94-3.922a16.524 16.524 0 0 1 2.432-3.89c.994-1.19 2.085-2.184 3.274-2.983 1.189-.8 2.323-1.2 3.404-1.2.605 0 1.026.108 1.264.325.238.216.357.497.357.843 0 .518-.162 1.08-.487 1.685-.324.605-.81 1.178-1.458 1.718-.649.54-1.47.995-2.464 1.362-.994.367-2.183.551-3.566.551-.216.39-.454 1.005-.713 1.848a8.641 8.641 0 0 0-.389 2.56c0 1.773.799 2.66 2.399 2.66.994 0 2.02-.239 3.079-.714a17.753 17.753 0 0 0 3.08-1.783 22.155 22.155 0 0 0 2.756-2.334c.842-.843 1.545-1.632 2.107-2.367.086-.086.183-.108.292-.065.108.044.162.13.162.26zm-6.808-5.057c0-.562-.281-.843-.843-.843-.432 0-.875.162-1.329.486a7.2 7.2 0 0 0-1.329 1.264 16.81 16.81 0 0 0-1.232 1.686 14.567 14.567 0 0 0-.973 1.75c.087.044.238.076.454.098.216.022.389.032.519.032 1.253 0 2.355-.443 3.306-1.329.951-.886 1.427-1.934 1.427-3.144zm67.884 6.418c-.217 1.081-.833 2.118-1.848 3.113-1.016.994-2.205 1.88-3.566 2.658a20.383 20.383 0 0 1-4.344 1.848c-1.535.454-2.929.68-4.182.68-2.334 0-4.117-.367-5.349-1.102-1.232-.734-1.848-2.075-1.848-4.02 0-.13.011-.28.032-.453a8 8 0 0 1 .098-.584c-1.081.476-2.183.962-3.307 1.459-1.124.497-2.194.94-3.21 1.329-1.015.389-1.901.724-2.658 1.005-.756.28-1.286.443-1.588.486a2.504 2.504 0 0 1-.584-.486c-.173-.194-.302-.465-.389-.81 0-.13.054-.303.162-.52.108-.215.357-.626.746-1.231a99.265 99.265 0 0 0 1.815-3.112 44.094 44.094 0 0 0 1.621-3.177c.087-.216.13-.41.13-.584 0-.216-.087-.28-.26-.194-.345.173-.972.659-1.88 1.459-.907.8-1.858 1.718-2.853 2.755a50.773 50.773 0 0 0-2.852 3.242c-.908 1.124-1.535 2.075-1.881 2.853-.086.216-.162.4-.227.55a2.39 2.39 0 0 1-.291.487c-.044.087-.173.151-.389.195a7.236 7.236 0 0 1-.616.097 2.078 2.078 0 0 1-.519 0c-.151-.022-.205-.076-.162-.162.086-.216.259-.584.519-1.102.259-.52.562-1.103.907-1.751-.734.303-1.718.627-2.95.973-1.232.345-2.409.518-3.533.518a9.38 9.38 0 0 1-1.329-.097 5.704 5.704 0 0 1-1.265-.324 2.166 2.166 0 0 1-.94-.681c-.238-.302-.356-.713-.356-1.232 0-.518.064-1.005.194-1.459.13-.453.389-1.059.778-1.815s.951-1.74 1.686-2.95c.735-1.21 1.686-2.81 2.853-4.798-.519 0-1.189.022-2.01.065-.822.043-1.448.108-1.881.194-.259 0-.356-.119-.291-.356.064-.238.205-.357.421-.357.648 0 1.297-.01 1.945-.032.649-.022 1.34-.033 2.075-.033a42.835 42.835 0 0 0 1.783-3.047 309.609 309.609 0 0 0 1.718-3.242 21.35 21.35 0 0 0 1.297-.486c.259-.108.508-.205.745-.292.238-.086.4-.13.487-.13.043 0-.065.238-.324.714-.173.259-.411.648-.714 1.167a250 250 0 0 0-.972 1.685c-.346.606-.692 1.221-1.038 1.848-.345.627-.648 1.2-.907 1.718.475 0 1.015-.021 1.621-.064a50.29 50.29 0 0 1 1.847-.098c.627-.021 1.232-.043 1.816-.064.583-.022 1.07-.033 1.459-.033.346 0 .756.022 1.232.065.475.043.994.216 1.556.519a835.412 835.412 0 0 1 8.072-12.87c2.399-3.74 4.646-6.895 6.743-9.467 2.096-2.571 4.128-4.516 6.094-5.835 1.967-1.318 3.988-1.977 6.063-1.977.562 0 1.048.13 1.458.389.411.259.616.735.616 1.426 0 .216-.032.465-.097.746-.065.28-.162.53-.292.745-.216-.302-.562-.572-1.037-.81-.475-.238-1.124-.357-1.945-.357a11.4 11.4 0 0 0-2.95.39c-.973.259-1.988.756-3.047 1.49-1.059.735-2.205 1.751-3.437 3.048-1.232 1.297-2.593 3.004-4.084 5.122-1.492 2.118-3.156 4.69-4.993 7.716-1.837 3.025-3.901 6.613-6.192 10.762.26.39.389.714.389.973-.086.13-.292.26-.616.389l-.81.324a226.154 226.154 0 0 0-3.015 5.22 167.676 167.676 0 0 0-1.848 3.403 127.35 127.35 0 0 1 3.825-4.117c1.081-1.102 2.01-1.988 2.788-2.658.778-.67 1.416-1.156 1.913-1.459.497-.303.875-.454 1.135-.454.216 0 .454.097.713.292.259.194.389.357.389.486 0 .13-.032.27-.097.422-.065.151-.119.27-.162.356-.346.692-.757 1.492-1.232 2.4a97.413 97.413 0 0 0-2.367 4.83c-.281.626-.421 1.005-.421 1.134 0 .26.108.39.324.39.216 0 .616-.109 1.199-.325.584-.216 1.286-.486 2.108-.81a87.048 87.048 0 0 0 2.723-1.135c.994-.432 1.966-.865 2.917-1.297a13.019 13.019 0 0 1 1.654-3.63 17.013 17.013 0 0 1 2.528-3.08c.93-.887 1.902-1.6 2.918-2.14 1.016-.54 1.977-.81 2.885-.81.994 0 1.686.216 2.075.648.389.432.692.973.908 1.62a.621.621 0 0 1-.195.455c-.519.475-1.178.983-1.977 1.523-.8.54-1.665 1.081-2.594 1.621-.929.54-1.88 1.07-2.853 1.589-.972.518-1.891 1.015-2.755 1.491-.173.648-.26 1.448-.26 2.399 0 1.426.53 2.464 1.589 3.112 1.059.648 2.28.973 3.663.973 2.032 0 3.858-.314 5.479-.94 1.621-.627 2.982-1.416 4.085-2.367 1.102-.951 1.945-1.988 2.528-3.112.584-1.124.832-2.205.746-3.242 0-.086.032-.14.097-.162.065-.022.119.032.162.162 0 .13.043.443.13.94.086.497.13.919.13 1.264zm-10.374-5.122c0-.475-.216-.918-.649-1.329-.432-.41-.972-.616-1.621-.616-.302 0-.702.14-1.199.422-.497.28-1.005.713-1.524 1.296-.518.584-1.037 1.351-1.556 2.302-.518.951-.972 2.118-1.361 3.501.691-.345 1.426-.724 2.204-1.134a31.86 31.86 0 0 0 2.237-1.297 50.278 50.278 0 0 0 1.945-1.297c.584-.41 1.005-.789 1.264-1.134.173-.217.26-.454.26-.714zm-22.434-.518c-.518-.692-1.124-1.135-1.815-1.33a7.416 7.416 0 0 0-2.01-.291c-.735 0-1.567.021-2.496.065-.93.043-1.762.086-2.496.13-.303.518-.724 1.264-1.265 2.236-.54.973-1.08 2-1.621 3.08a33.188 33.188 0 0 0-1.394 3.177c-.389 1.037-.583 1.88-.583 2.529 0 .734.27 1.22.81 1.458a4.074 4.074 0 0 0 1.654.357c.864 0 1.815-.14 2.852-.421 1.038-.282 1.924-.595 2.659-.94.389-.736.843-1.578 1.361-2.53a95.995 95.995 0 0 1 1.621-2.852c.562-.951 1.081-1.848 1.556-2.69.476-.844.865-1.503 1.167-1.978zm49.665 28.009l.195-.13c.518.26 1.102.454 1.75.584.648.13 1.275.194 1.88.194 1.47 0 2.918-.4 4.344-1.2 1.427-.799 2.799-1.825 4.117-3.079 1.319-1.253 2.572-2.69 3.761-4.311a87.543 87.543 0 0 0 3.307-4.83 73.694 73.694 0 0 0 2.723-4.637c.799-1.49 1.48-2.755 2.042-3.792 0-.346-.13-.39-.389-.13-.389.346-1.026.864-1.913 1.556-.886.692-1.945 1.372-3.177 2.042-1.231.67-2.615 1.265-4.149 1.783a14.985 14.985 0 0 1-4.83.778c-3.156 0-5.544-.659-7.165-1.977-1.621-1.319-2.431-3.123-2.431-5.414 0-.908.259-2.248.778-4.02.519-1.772 1.383-3.674 2.593-5.705 1.211-2.032 2.799-4.01 4.766-5.933 1.967-1.924 4.398-3.49 7.294-4.7a23.281 23.281 0 0 1 5.154-1.427c1.708-.26 3.275-.39 4.701-.39.735 0 1.534.044 2.399.13a19.32 19.32 0 0 1 2.529.422c.821.195 1.577.465 2.269.81.691.346 1.232.757 1.621 1.232-.173.735-.443 1.632-.811 2.691a35.741 35.741 0 0 1-1.069 2.756l-.454.13-.065-.195c.086-.26.151-.519.194-.778.044-.26.065-.54.065-.843 0-.778-.227-1.513-.681-2.205-.453-.691-1.069-1.296-1.847-1.815-.778-.519-1.686-.919-2.724-1.2a12.597 12.597 0 0 0-3.306-.42c-2.205 0-4.258.464-6.16 1.393a19.264 19.264 0 0 0-5.187 3.728c-.951.908-1.966 2.086-3.047 3.534a42.213 42.213 0 0 0-3.015 4.668 33.581 33.581 0 0 0-2.301 5.025c-.606 1.685-.908 3.242-.908 4.668 0 1.729.583 3.047 1.75 3.955 1.167.908 2.853 1.362 5.058 1.362 1.902 0 3.803-.4 5.705-1.2a24.259 24.259 0 0 0 5.22-2.982 23.144 23.144 0 0 0 4.117-3.955c1.167-1.448 1.988-2.82 2.463-4.117.173-.433.249-.757.227-.973-.021-.216-.27-.324-.745-.324-.735.043-1.6.108-2.594.194-.994.087-2.074.173-3.242.26l-.194-.065.194-.713c.865 0 1.827-.022 2.886-.065 1.059-.044 2.118-.098 3.177-.162a32.946 32.946 0 0 0 3.047-.324 41.79 41.79 0 0 0 2.626-.487c.173.13.173.324 0 .584-.692.173-1.167.378-1.427.616-.259.237-.54.659-.842 1.264-.822 1.6-1.762 3.425-2.821 5.479a250.01 250.01 0 0 1-3.306 6.192 111.403 111.403 0 0 1-3.469 5.867c-1.167 1.837-2.269 3.34-3.307 4.506-.432.52-1.048 1.19-1.848 2.01-.799.822-1.761 1.61-2.885 2.367-1.124.756-2.42 1.415-3.89 1.977-1.47.562-3.112.843-4.928.843-.605 0-1.21-.043-1.815-.13a9.334 9.334 0 0 1-1.945-.518l-.065-.454zm63.669-58.288c0 .605-.237 1.491-.713 2.658-.475 1.167-1.156 2.518-2.042 4.053-.886 1.534-1.967 3.177-3.242 4.927a54.954 54.954 0 0 1-4.344 5.22 53.6 53.6 0 0 1-5.349 4.96 41.79 41.79 0 0 1-6.224 4.181c-.389.692-.93 1.621-1.621 2.788a72.52 72.52 0 0 0-2.043 3.696 42.353 42.353 0 0 0-1.75 3.826c-.497 1.253-.746 2.312-.746 3.177 0 1.383.627 2.074 1.88 2.074 1.081 0 2.205-.302 3.372-.907a19.385 19.385 0 0 0 3.339-2.205 32.815 32.815 0 0 0 2.982-2.755 52.285 52.285 0 0 0 2.367-2.626c.303-.303.475-.379.519-.227.043.151-.022.313-.195.486a46.212 46.212 0 0 1-2.755 3.047 31.367 31.367 0 0 1-3.372 2.983 20.242 20.242 0 0 1-3.728 2.27c-1.297.604-2.593.907-3.89.907-1.124 0-1.934-.27-2.431-.81-.498-.541-.746-1.2-.746-1.978s.335-1.891 1.005-3.34a62.608 62.608 0 0 1 2.366-4.57c.908-1.6 1.816-3.112 2.724-4.539a119.59 119.59 0 0 0 2.009-3.242l2.302-3.922c.8-1.362 1.589-2.69 2.367-3.988l2.237-3.728a78.909 78.909 0 0 1 1.977-3.144 46.031 46.031 0 0 1 2.269-3.177c.778-.994 1.772-1.989 2.983-2.983 1.642-1.383 3.155-2.442 4.538-3.177 1.384-.735 2.313-1.102 2.788-1.102.346 0 .627.097.843.292.216.194.324.486.324.875zm-2.917 1.686c0-.692-.281-1.038-.843-1.038-.216 0-.454.065-.713.195-.26.13-.595.4-1.005.81-.411.411-.908.984-1.492 1.719-.583.734-1.329 1.685-2.236 2.852-.346.476-.832 1.167-1.459 2.075-.627.908-1.427 2.107-2.399 3.599a324.745 324.745 0 0 0-3.501 5.51l-4.831 7.749a39.218 39.218 0 0 0 7.294-5.35c2.27-2.096 4.226-4.246 5.868-6.45 1.643-2.205 2.939-4.345 3.89-6.42.951-2.074 1.427-3.825 1.427-5.251zm6.872 29.565a13.197 13.197 0 0 1-2.69 2.69 5.82 5.82 0 0 1-3.599 1.2c-.735 0-1.459-.183-2.172-.55-.713-.368-1.286-.92-1.718-1.654a33.85 33.85 0 0 1-1.167 2.367 22.496 22.496 0 0 1-1.686 2.658 16.59 16.59 0 0 1-2.172 2.431 12.012 12.012 0 0 1-2.561 1.816c-.778.345-1.426.518-1.945.518-1.556 0-2.334-.691-2.334-2.074 0-.779.14-1.578.421-2.4a14.82 14.82 0 0 1 1.07-2.398c.432-.778.897-1.513 1.394-2.205.497-.691.962-1.253 1.394-1.686a13.537 13.537 0 0 1 3.112-2.528 8.992 8.992 0 0 1 3.761-1.232c.086-.346.216-.746.389-1.2.173-.453.475-.724.908-.81l.648-.13c.216-.043.411-.108.583-.194.13-.087.26-.097.389-.033.13.065.152.184.065.357-.302.476-.529 1.08-.68 1.815a11.851 11.851 0 0 0-.227 2.4c0 1.21.227 2.204.68 2.982.454.778 1.243 1.167 2.367 1.167 1.124 0 2.14-.367 3.047-1.102a11.839 11.839 0 0 0 2.27-2.4c.086-.215.226-.28.421-.194.194.087.205.216.032.39zm-10.698.454a10.325 10.325 0 0 1-.194-1.361 18.077 18.077 0 0 1-.065-1.492c0-.216-.086-.324-.259-.324-.476 0-.973.162-1.492.486a8.279 8.279 0 0 0-1.556 1.297 20.11 20.11 0 0 0-1.556 1.848 23.089 23.089 0 0 0-1.426 2.14 24.036 24.036 0 0 0-1.524 3.08c-.454 1.102-.659 2.15-.616 3.144 0 .302.054.583.162.843.108.26.357.389.746.389.735 0 1.534-.41 2.399-1.232a19.386 19.386 0 0 0 2.464-2.885 23.285 23.285 0 0 0 1.977-3.34c.541-1.123.854-1.988.94-2.593zm19.775-2.658c-.259.302-.529.67-.81 1.102-.281.432-.465.756-.551.973-.043.13-.13.194-.259.194-.044 0-.108-.065-.195-.194a2.783 2.783 0 0 0-.357-.422 2.35 2.35 0 0 0-.615-.421c-.26-.13-.627-.195-1.103-.195-.562 0-1.188.195-1.88.584a9.697 9.697 0 0 0-1.815 1.296 14.263 14.263 0 0 0-2.172 2.27 35.935 35.935 0 0 0-1.783 2.56 55.848 55.848 0 0 0-1.621 2.724c-.519.93-1.081 1.87-1.686 2.82-.043.13-.173.195-.389.195-.087 0-.27-.13-.551-.39-.281-.259-.422-.453-.422-.583 0-.26.152-.648.454-1.167.692-1.21 1.394-2.431 2.107-3.663l2.01-3.469c.627-1.08 1.178-2.02 1.654-2.82.475-.8.799-1.394.972-1.783.216-.39.368-.584.454-.584.087 0 .303.108.648.324.346.216.519.52.519.908 0 .13-.076.346-.227.649-.151.302-.324.615-.518.94-.195.324-.379.637-.552.94a12.11 12.11 0 0 1-.389.648c-.129.216-.151.324-.064.324.086 0 .194-.065.324-.194.432-.432.961-.908 1.588-1.427a22.19 22.19 0 0 1 1.978-1.458 14.914 14.914 0 0 1 2.042-1.135c.67-.303 1.264-.454 1.783-.454.389 0 .724.097 1.005.292.281.194.421.4.421.616zm-.778 12.513c-.605 0-1.08-.13-1.426-.389-.346-.26-.519-.648-.519-1.167 0-.864.53-2.15 1.589-3.858a367.418 367.418 0 0 1 3.858-6.062 6.27 6.27 0 0 1 .421-.486c.108-.108.227-.205.357-.292.216-.043.508-.097.875-.162s.594-.097.681-.097c.173 0 .259.065.259.194-1.556 2.723-2.864 4.939-3.923 6.646-1.059 1.707-1.588 3.036-1.588 3.987 0 .52.238.779.713.779.216 0 .497-.065.843-.195s.713-.303 1.102-.519c.389-.216.757-.443 1.102-.68.346-.238.606-.465.779-.681.389-.39.961-1.308 1.718-2.756a229.798 229.798 0 0 1 2.755-5.09c.519-.95 1.005-1.75 1.459-2.398.454-.649.832-.973 1.135-.973.173.087.335.303.486.648.151.346.227.692.227 1.038 0 .173-.195.573-.584 1.2a40.57 40.57 0 0 1-1.491 2.204c-.605.843-1.264 1.74-1.977 2.69a136.13 136.13 0 0 1-2.043 2.659 399.005 399.005 0 0 0-4.7 7.359 227.59 227.59 0 0 1-4.766 7.326 102.901 102.901 0 0 1-4.927 6.678c-1.686 2.097-3.426 3.923-5.22 5.479-1.794 1.556-3.652 2.788-5.576 3.696a14.034 14.034 0 0 1-6.062 1.361c-1.253 0-2.377-.302-3.371-.907-.995-.606-1.492-1.665-1.492-3.177 0-.346.033-.703.098-1.07.064-.368.14-.66.227-.876.043-.13.108-.216.194-.259.087-.043.13.022.13.195 0 1.167.432 2.226 1.296 3.177.865.95 2.399 1.426 4.604 1.426 1.772 0 3.533-.443 5.284-1.33 1.751-.885 3.458-2.063 5.122-3.533 1.664-1.47 3.274-3.177 4.83-5.122a100.598 100.598 0 0 0 4.507-6.094 138.858 138.858 0 0 0 4.117-6.387c1.296-2.14 2.485-4.16 3.566-6.062.086-.173.086-.238 0-.194a.745.745 0 0 0-.195.13c-.475.388-1.124.81-1.945 1.263-.821.454-1.664.681-2.529.681zm29.696-25.286c.172.087.237.194.194.324-.043.13-.13.195-.259.195-.562 0-1.059.173-1.492.518-.95.778-1.901 1.837-2.852 3.177a44.98 44.98 0 0 0-2.788 4.506 92.681 92.681 0 0 0-2.659 5.285 223.814 223.814 0 0 0-2.528 5.64c-.087.173-.195.238-.324.195-.13-.043-.195-.151-.195-.324 1.297-3.718 2.561-7.067 3.793-10.05 1.232-2.982 2.431-5.597 3.598-7.845.692-1.34 1.729-2.01 3.113-2.01.345 0 .767.043 1.264.13a8.38 8.38 0 0 1 1.135.259zm-12.19 24.12c0 .604-.216 1.134-.648 1.588-.432.453-.929.68-1.491.68-.822 0-1.232-.41-1.232-1.231 0-.606.151-1.19.454-1.751.302-.562.799-.843 1.491-.843.475 0 .832.151 1.07.454.237.303.356.67.356 1.102z" fill="#000"/>
</svg>
