<svg width="1397" height="196" fill="none" xmlns="http://www.w3.org/2000/svg"><path d="M53.2 107.4c.4 0 .6.4.6 1.2 0 .8-.933 2.133-2.8 4l-2 3c-3.6 5.467-6.267 8.667-8 9.6-1.6.933-2.934 1.4-4 1.4-.934 0-2.467-.267-4.6-.8-2-.4-3.067-.867-3.2-1.4V121c0-1.733 1.267-5.867 3.8-12.4A183.509 183.509 0 0141.8 89c6.133-12 12.267-23.6 18.4-34.8 1.2-2.267 1.8-4 1.8-5.2 0-1.333-.2-2.333-.6-3 .8-3.867 4.066-8.8 9.8-14.8 5.867-6 11.2-9 16-9 2.133 0 4.733.867 7.8 2.6 3.067 1.6 4.4 3.733 4 6.4-.933-.667-1.8-1-2.6-1-5.6 0-12.6 5.467-21 16.4-14 18.133-25.867 38.933-35.6 62.4-1.067 2.8-1.6 4.733-1.6 5.8v1.8c.533 1.333 1.6 1.733 3.2 1.2 1.733-.533 3.333-1.733 4.8-3.6 3.466-4.533 5.8-6.8 7-6.8zm76.2-86.2c1.066-1.733 2.666-3.733 4.8-6-5.867-.133-14.667-.667-26.4-1.6-14.534-1.2-24.467-1.8-29.8-1.8-5.334 0-12.734.467-22.2 1.4-12.667 1.733-23.6 5.267-32.8 10.6C13.933 29 8.533 35.6 6.8 43.6c-.267.8-.4 1.8-.4 3 0 1.067.333 2.4 1 4 .8 1.6 1.733 2.867 2.8 3.8 1.067.933 2.667 2.067 4.8 3.4 2.267 1.333 3.733 2.333 4.4 3 .8.533.933 1 .4 1.4-.4.4-.867.6-1.4.6-.4 0-.867-.067-1.4-.2-4.534-1.333-8.4-3.8-11.6-7.4C2.333 51.467.8 48.4.8 46c0-2.533.333-4.667 1-6.4 0-1.467.066-2.533.2-3.2 2-9.467 8.066-16.8 18.2-22C32.333 8.133 47.267 5 65 5c10.8 0 24.933 1.2 42.4 3.6 17.6 2.4 27.4 3.6 29.4 3.6 3.6-4 6.333-6.067 8.2-6.2.666-.133 1.6-.2 2.8-.2 1.2 0 2.266.467 3.2 1.4.933.8 1.4 1.667 1.4 2.6s-.4 1.867-1.2 2.8c-.8.933-2.467 2.333-5 4.2-2.4 1.733-4.334 3.333-5.8 4.8-6.934 6.933-10.4 13-10.4 18.2 0 2.267.466 4.133 1.4 5.6.933 1.333.866 2.333-.2 3-1.067.533-2.2.067-3.4-1.4-1.334-1.067-2-4.467-2-10.2s1.2-10.933 3.6-15.6zM115.587 97c2.4-4.933 3.6-8.733 3.6-11.4s-.333-4.733-1-6.2c-.533-1.6-.266-2.933.8-4 1.2-1.067 2.667-1.467 4.4-1.2 2.667.667 4 3.667 4 9s-3.133 12.333-9.4 21c.134 3.6 2 5.4 5.6 5.4 3.6 0 9.067-3.867 16.4-11.6 3.467-4 5.6-6.6 6.4-7.8.934-1.2 1.734-1.6 2.4-1.2.667.267 1 .533 1 .8 0 1.333-2.4 4.8-7.2 10.4-7.6 9.333-14.333 14-20.2 14-3.866 0-6.6-1.667-8.2-5-2.666 2.8-5.266 5.4-7.8 7.8-5.2 4.4-11 6.6-17.4 6.6-3.6 0-6.6-.867-9-2.6-4.666-2.8-7-7.8-7-15 0-7.867 2.667-15.867 8-24 3.067-4.8 6.667-9 10.8-12.6 6.534-5.733 12.734-8.6 18.6-8.6 1.467 0 2.867.2 4.2.6 4 1.333 6 3.867 6 7.6 0 3.067-.8 4.6-2.4 4.6-.666-.267-1-1.267-1-3 0-2.4-1.333-3.6-4-3.6-4.666 0-10.666 4.267-18 12.8-7.333 8.533-11.733 17.133-13.2 25.8-.266 1.467-.4 3.133-.4 5 0 1.733.6 3.8 1.8 6.2 1.2 2.267 3.4 3.4 6.6 3.4 3.334 0 6.934-1.467 10.8-4.4 3.867-2.933 7.334-6.667 10.4-11.2l-.6-1.2c-.533-2.133-.266-3.867.8-5.2 1.067-1.333 2.467-1.733 4.2-1.2zM247.454 119.6c-4.133.8-8.266 1.2-12.4 1.2-13.466 0-24.133-4.333-32-13-5.466-6.133-8.2-13.933-8.2-23.4 0-20.4 9.2-39.067 27.6-56 20.534-18.267 45.534-27.4 75-27.4 8.401 0 15.667 1.6 21.801 4.8 4.933 2.667 7.4 6.667 7.4 12 0 2.267-.667 3.533-2 3.8-1.734.4-2.667-.6-2.8-3-.534-8.8-7.334-13.2-20.4-13.2-5.867 0-13.134 1.467-21.8 4.4-8.534 2.8-17.401 6.867-26.601 12.2-9.2 5.333-17.8 11.267-25.8 17.8-8 6.4-14.6 13.667-19.8 21.8-5.066 8.133-7.6 16.267-7.6 24.4s2.8 14.4 8.4 18.8c5.734 4.267 12.734 6.4 21 6.4 9.067 0 19.6-1.6 31.6-4.8 6.667-2 13-4.8 19-8.4 6-3.733 10.601-7 13.801-9.8 6-5.067 12.066-10.667 18.2-16.8 3.2-8.133 8.466-12.867 15.8-14.2 3.066-.533 6.4-.533 10 0l2.4.4c1.2.267 1.799.6 1.799 1 0 1.333-.866 1.933-2.599 1.8h-.4c-7.2 0-13.134 6.733-17.8 20.2-3.6 10.8-7 20.467-10.2 29 7.066-1.6 11.733-2.4 14-2.4 2.266 0 3.866.267 4.8.8.933.533 1.066 1.133.4 1.8-.534.667-1.134.867-1.8.6-.534-.267-1.6-.4-3.2-.4-1.467 0-4.467.6-9 1.8-4.4 1.067-7 2.667-7.8 4.8-13.334 33.733-29.467 57.2-48.4 70.4-8.534 5.867-16.134 8.8-22.801 8.8-2.533 0-4.933-.4-7.2-1.2-6.133-2.267-9.2-6.8-9.2-13.6 0-8.133 4.2-17 12.6-26.6 16.267-18.8 38.467-32.733 66.601-41.8a763.31 763.31 0 009.599-31.4c-23.866 22.533-44.533 35.333-62 38.4zm-16 58.6c0 1.467.2 2.933.6 4.4 1.334 5.2 4.667 7.8 10 7.8 7.867 0 16.134-5.267 24.8-15.8 12.934-16.133 23.467-35.533 31.6-58.2-23.333 7.6-41.8 19.933-55.4 37-7.733 9.467-11.6 17.733-11.6 24.8zM389.22 97c2.4-4.933 3.6-8.733 3.6-11.4s-.333-4.733-1-6.2c-.533-1.6-.267-2.933.8-4 1.2-1.067 2.667-1.467 4.4-1.2 2.667.667 4 3.667 4 9s-3.133 12.333-9.4 21c.133 3.6 2 5.4 5.6 5.4 3.6 0 9.067-3.867 16.4-11.6 3.467-4 5.6-6.6 6.4-7.8.933-1.2 1.733-1.6 2.4-1.2.667.267 1 .533 1 .8 0 1.333-2.4 4.8-7.2 10.4-7.6 9.333-14.333 14-20.2 14-3.867 0-6.6-1.667-8.2-5-2.667 2.8-5.267 5.4-7.8 7.8-5.2 4.4-11 6.6-17.4 6.6-3.6 0-6.6-.867-9-2.6-4.667-2.8-7-7.8-7-15 0-7.867 2.667-15.867 8-24 3.067-4.8 6.667-9 10.8-12.6 6.533-5.733 12.733-8.6 18.6-8.6 1.467 0 2.867.2 4.2.6 4 1.333 6 3.867 6 7.6 0 3.067-.8 4.6-2.4 4.6-.667-.267-1-1.267-1-3 0-2.4-1.333-3.6-4-3.6-4.667 0-10.667 4.267-18 12.8-7.333 8.533-11.733 17.133-13.2 25.8-.267 1.467-.4 3.133-.4 5 0 1.733.6 3.8 1.8 6.2 1.2 2.267 3.4 3.4 6.6 3.4 3.333 0 6.933-1.467 10.8-4.4 3.867-2.933 7.333-6.667 10.4-11.2l-.6-1.2c-.533-2.133-.267-3.867.8-5.2 1.067-1.333 2.467-1.733 4.2-1.2z" fill="#000"/><path d="M426.737 82.6c6-5.333 12.2-9.867 18.6-13.6 6.4-3.733 11.467-6.067 15.2-7 3.734-.933 7.4-1.4 11-1.4 3.6 0 7 1.2 10.2 3.6C500.004 21.8 517.471.6 534.137.6c5.6 0 9.4 1.6 11.4 4.8.934 1.6 1.4 3 1.4 4.2 0 3.333-1.466 7.6-4.4 12.8-2.8 5.067-7.2 10.667-13.2 16.8-6 6.133-14.6 13.733-25.8 22.8-11.2 8.933-17.4 13.933-18.6 15-4.266 9.867-7.6 19.4-10 28.6-2.4 9.2-3.6 16.067-3.6 20.6 0 4.533.8 8.133 2.4 10.8.8 1.733 2 2.733 3.6 3 1.6.4 2.934.2 4-.6 1.2-.667 2.067-1.267 2.6-1.8a31.52 31.52 0 012.2-1.6c.934-.4 1.6-.467 2-.2.4.267.334 1-.2 2.2-1.066 1.333-2.066 2.467-3 3.4-2.133 1.467-4.666 2.2-7.6 2.2-2.8 0-4.666-.067-5.6-.2-6.4-1.067-9.6-5.733-9.6-14 0-8 1.067-15.4 3.2-22.2 2.934-9.333 5.6-17.067 8-23.2-21.333 24.8-36.466 37.2-45.4 37.2-2.133 0-4.466-.667-7-2-2.4-1.2-4.466-2.933-6.2-5.2-1.733-2.4-2.6-4.933-2.6-7.6s.6-5.2 1.8-7.6c2.667-5.6 6.934-11 12.8-16.2zm53.4-15.2c-1.6-.8-4.4-1.2-8.4-1.2s-9.2 1.667-15.6 5c-6.266 3.2-12.2 7.267-17.8 12.2-4.666 4.4-8.8 9.4-12.4 15-3.466 5.467-5.2 9.467-5.2 12 0 4.933 1.4 7.4 4.2 7.4 2.8 0 7.067-2.267 12.8-6.8 14.8-12.133 28-24.4 39.6-36.8l2.8-6.8zm58.6-50.4c1.734-3.2 2.6-5.867 2.6-8 0-2.267-1-3.4-3-3.4-1.866 0-4.4 1.2-7.6 3.6-14.666 11.2-27.933 29.933-39.8 56.2 8.667-5.6 17.734-13.067 27.2-22.4 9.467-9.333 16.334-18 20.6-26zM592.687 65c2.4 0 5.267 1.267 8.6 3.8 3.334 2.4 5.2 4.8 5.6 7.2.134.933.2 1.8.2 2.6 0 6-2.933 12.467-8.8 19.4-5.866 6.8-12.466 12.6-19.8 17.4-11.333 7.733-22.6 11.6-33.8 11.6-4.533 0-8.133-.6-10.8-1.8-2.133-1.067.534-1.6 8-1.6 8.134 0 18.667-4.8 31.6-14.4 12.534-8.8 20.134-19.333 22.8-31.6.4-1.867.334-3.733-.2-5.6-.4-2-1.533-3-3.4-3-6 0-13.866 4.2-23.6 12.6-4.133 3.467-8.4 8.133-12.8 14-4.266 5.867-6.4 10.667-6.4 14.4 0 .533.067 1.133.2 1.8.267.533.067 1.467-.6 2.8-1.733 3.467-4.2 3.267-7.4-.6-.8-2-1.2-4.067-1.2-6.2 0-6.133.934-12.6 2.8-19.4-.533.533-1.733 2.2-3.6 5-1.733 2.667-3.8 5.333-6.2 8-1.2 1.333-2.133 1.333-2.8 0-.133-.267-.2-.6-.2-1 0-.533.267-1.133.8-1.8 10.4-12.933 16.467-21.333 18.2-25.2 2.4-6.667 6.067-15.333 11-26 4.934-10.8 9.467-19.4 13.6-25.8 8.534-13.467 17.334-20.2 26.4-20.2 1.6 0 3.267.2 5 .6l4 1.4c3.867 2.267 5.8 5.2 5.8 8.8 0 3.467-1.066 7.267-3.2 11.4-3.466 7.067-10.933 16-22.4 26.8-11.466 10.667-22.6 19.733-33.4 27.2-2.666 4.8-4.733 11.067-6.2 18.8 4.934-7.333 11.334-14.4 19.2-21.2 8-6.8 15.667-10.2 23-10.2zm-6.4-18c15.867-16 23.8-27.867 23.8-35.6 0-3.2-1.2-4.8-3.6-4.8-1.866 0-4.4 1.2-7.6 3.6-13.733 10.533-27.066 30.333-40 59.4 9.067-6 18.2-13.533 27.4-22.6zM660.817 60.8c7.2 0 10.8 3.467 10.8 10.4 0 3.6-1 6.533-3 8.8-3.333 4.933-8.733 9.267-16.2 13-7.467 3.6-13.8 5.6-19 6-1.867.133-2.867-.4-3-1.6-.133-.533 0-.867.4-1 .533-.133.933-.2 1.2-.2 3.067-.267 7-1.733 11.8-4.4 8.933-4.8 15.467-9.733 19.6-14.8 1.733-2.4 2.6-4.667 2.6-6.8 0-2.267-1.067-3.4-3.2-3.4-1.733 0-4.067.733-7 2.2-6.267 2.933-12.867 8.067-19.8 15.4-6.933 7.2-11.467 14.267-13.6 21.2-.667 2.133-1 4.267-1 6.4 0 2 .867 3.933 2.6 5.8s4.4 2.8 8 2.8c4 0 8.6-1.067 13.8-3.2 15.067-6.133 26.667-15.4 34.8-27.8.8-1.067 1.533-1.267 2.2-.6.533.267.8.6.8 1s-.2.867-.6 1.4c-4 6.667-9.067 12.6-15.2 17.8-11.867 10.133-23.4 15.2-34.6 15.2-9.6 0-16.333-2.867-20.2-8.6-1.467-2.267-2.2-5-2.2-8.2 0-3.2.867-7 2.6-11.4 3.333-7.6 10.467-15.4 21.4-23.4 10.933-8 19.6-12 26-12zM754.234 63c10.267-.933 16.467-1.4 18.6-1.4 2.267 0 3.4.333 3.4 1 0 .8-1.6 1.667-4.8 2.6-3.066.8-10.666 1.867-22.8 3.2-.666 1.2-1.466 2.6-2.4 4.2-2 3.2-3.066 5.133-3.2 5.8-7.6 15.2-11.6 24.867-12 29-.133 1.2-.2 2.733-.2 4.6 0 1.867.534 3.4 1.6 4.6 1.867 2.133 4.534 2.267 8 .4 3.467-1.867 8.267-5.6 14.4-11.2 6.267-5.6 11.334-11.067 15.2-16.4.534-.667 1.2-.8 2-.4 2 .933-1.466 6.2-10.4 15.8-8.533 9.2-15.666 14.867-21.4 17-3.333 1.2-6.133 1.8-8.4 1.8-5.333 0-8.866-2.533-10.6-7.6-.266-.933-.4-2.067-.4-3.4 0-4.667 2.134-11.733 6.4-21.2-.666 1.467-3.266 4.8-7.8 10-1.2 1.333-2.133 1.333-2.8 0-.133-.267-.2-.6-.2-1 0-.533.267-1.133.8-1.8 6.534-8.133 11.667-15 15.4-20.6 0-.133 1.467-2.933 4.4-8.4-1.333.267-2.733.4-4.2.4-1.333 0-2.333-.4-3-1.2-.666-.933-.733-2-.2-3.2.934-2.133 4.467-3.333 10.6-3.6.134-.267.4-.4.8-.4l10-18.6a39.07 39.07 0 011.8-3.2 75.533 75.533 0 001.4-2.6l1.2-2c.4-.667.734-1.133 1-1.4l.8-.8c.534-.8 2.067-1.2 4.6-1.2 2.667 0 4.467.733 5.4 2.2.4.533.6 1.467.6 2.8 0 1.2-.466 2.6-1.4 4.2-.933 1.467-1.933 2.533-3 3.2-1.066.667-1.8 1.4-2.2 2.2l-9.6 16.8 2.6-.2z" fill="#000"/><path d="M835.951 2c2.4-.933 4.467-1.4 6.2-1.4 5.867 0 9.734 1.6 11.6 4.8 1.067 1.6 1.6 3 1.6 4.2 0 9.067-7.6 20.467-22.8 34.2-13.466 11.867-25.866 22.067-37.2 30.6-3.733 8.4-7.6 18.733-11.6 31 4.8-5.867 10.867-12.667 18.2-20.4 14.8-15.333 25.134-23 31-23 2.934 0 4.467 1.467 4.6 4.4.267 3.067-.4 6-2 8.8-1.466 2.8-2.866 5.4-4.2 7.8-6.266 10.4-9.4 19.667-9.4 27.8 0 2.667.534 4.6 1.6 5.8 1.867 2.133 4.534 2.267 8 .4 3.467-1.867 8.267-5.6 14.4-11.2 6.267-5.6 11.334-11.067 15.2-16.4.667-.667 1.267-.8 1.8-.4.667.267 1 .6 1 1 0 .267-.133.6-.4 1-2 3.6-5.6 8.2-10.8 13.8-5.2 5.467-9.4 9.4-12.6 11.8-6.133 4.667-12 7-17.6 7-5.066 0-8.466-2.533-10.2-7.6-.4-1.2-.6-2.6-.6-4.2 0-1.733.134-3.533.4-5.4.667-5.6 4.2-14.333 10.6-26.2 1.334-2.4 2-4.067 2-5 0-1.067-.533-1.6-1.6-1.6-2.133 0-6.266 2.667-12.4 8-4.133 3.867-10.266 11.2-18.4 22-8 10.667-12.533 16.333-13.6 17-4.8 2.4-7.8 3.6-9 3.6-1.066 0-1.666-.2-1.8-.6-.133-.267-.066-.667.2-1.2.267-.533 1.334-3.467 3.2-8.8 6.267-17.733 10.534-29.467 12.8-35.2-4.4 5.6-9.866 11.933-16.4 19-1.066 1.067-1.6.867-1.6-.6 0-1.6.6-3.2 1.8-4.8 1.2-1.6 3.667-4.667 7.4-9.2 3.867-4.667 6.6-8.133 8.2-10.4-1.2-.667-1.866-1.6-2-2.8 0-1.2.4-2 1.2-2.4.934-.533 2.4-.4 4.4.4 1.334-1.867 2.534-3.933 3.6-6.2 15.867-34.133 30.934-53.933 45.2-59.4zm11.2 15c1.734-3.2 2.6-5.867 2.6-8 0-2.267-1-3.4-3-3.4-1.866 0-4.4 1.2-7.6 3.6-14.666 11.2-27.933 29.933-39.8 56.2 8.667-5.6 17.734-13.067 27.2-22.4 9.467-9.333 16.334-18 20.6-26z" fill="#000"/><path d="M904.762 60.8c7.2 0 10.8 3.467 10.8 10.4 0 3.6-1 6.533-3 8.8-3.333 4.933-8.733 9.267-16.2 13-7.466 3.6-13.8 5.6-19 6-1.866.133-2.866-.4-3-1.6-.133-.533 0-.867.4-1 .534-.133.934-.2 1.2-.2 3.067-.267 7-1.733 11.8-4.4 8.934-4.8 15.467-9.733 19.6-14.8 1.734-2.4 2.6-4.667 2.6-6.8 0-2.267-1.066-3.4-3.2-3.4-1.733 0-4.066.733-7 2.2-6.266 2.933-12.866 8.067-19.8 15.4-6.933 7.2-11.466 14.267-13.6 21.2-.666 2.133-1 4.267-1 6.4 0 2 .867 3.933 2.6 5.8 1.734 1.867 4.4 2.8 8 2.8 4 0 8.6-1.067 13.8-3.2 15.067-6.133 26.667-15.4 34.8-27.8.8-1.067 1.534-1.267 2.2-.6.534.267.8.6.8 1s-.2.867-.6 1.4c-4 6.667-9.066 12.6-15.2 17.8-11.866 10.133-23.4 15.2-34.6 15.2-9.6 0-16.333-2.867-20.2-8.6-1.466-2.267-2.2-5-2.2-8.2 0-3.2.867-7 2.6-11.4 3.334-7.6 10.467-15.4 21.4-23.4 10.934-8 19.6-12 26-12zM1025.58 119.6c-4.13.8-8.27 1.2-12.4 1.2-13.467 0-24.134-4.333-32-13-5.467-6.133-8.201-13.933-8.201-23.4 0-20.4 9.201-39.067 27.601-56 20.53-18.267 45.53-27.4 75-27.4 8.4 0 15.67 1.6 21.8 4.8 4.93 2.667 7.4 6.667 7.4 12 0 2.267-.67 3.533-2 3.8-1.73.4-2.67-.6-2.8-3-.53-8.8-7.33-13.2-20.4-13.2-5.87 0-13.13 1.467-21.8 4.4-8.53 2.8-17.4 6.867-26.6 12.2-9.2 5.333-17.8 11.267-25.8 17.8-8 6.4-14.6 13.667-19.8 21.8-5.067 8.133-7.601 16.267-7.601 24.4s2.801 14.4 8.401 18.8c5.733 4.267 12.733 6.4 21 6.4 9.07 0 19.6-1.6 31.6-4.8 6.67-2 13-4.8 19-8.4 6-3.733 10.6-7 13.8-9.8 6-5.067 12.07-10.667 18.2-16.8 3.2-8.133 8.47-12.867 15.8-14.2 3.07-.533 6.4-.533 10 0l2.4.4c1.2.267 1.8.6 1.8 1 0 1.333-.87 1.933-2.6 1.8h-.4c-7.2 0-13.13 6.733-17.8 20.2-3.6 10.8-7 20.467-10.2 29 7.07-1.6 11.73-2.4 14-2.4 2.27 0 3.87.267 4.8.8.93.533 1.07 1.133.4 1.8-.53.667-1.13.867-1.8.6-.53-.267-1.6-.4-3.2-.4-1.47 0-4.47.6-9 1.8-4.4 1.067-7 2.667-7.8 4.8-13.33 33.733-29.47 57.2-48.4 70.4-8.53 5.867-16.13 8.8-22.8 8.8-2.53 0-4.93-.4-7.2-1.2-6.13-2.267-9.201-6.8-9.201-13.6 0-8.133 4.201-17 12.601-26.6 16.27-18.8 38.47-32.733 66.6-41.8 3.47-10.533 6.67-21 9.6-31.4-23.87 22.533-44.53 35.333-62 38.4zm-16 58.6c0 1.467.2 2.933.6 4.4 1.33 5.2 4.67 7.8 10 7.8 7.87 0 16.13-5.267 24.8-15.8 12.93-16.133 23.47-35.533 31.6-58.2-23.33 7.6-41.8 19.933-55.4 37-7.73 9.467-11.6 17.733-11.6 24.8zM1195.35 17c1.6-2.933 2.4-5.2 2.4-6.8 0-2.8-1.14-4.2-3.4-4.2-1.87 0-4.2 1.067-7 3.2-10.67 8.267-21 21.333-31 39.2-8 14.4-13.87 26.733-17.6 37 9.2-6.267 19.46-16.467 30.8-30.6 11.46-14.133 20.06-26.733 25.8-37.8zm-59.6 76.4c-1.6 4.533-2.47 7.6-2.6 9.2-.14 1.467-.2 3.533-.2 6.2 0 2.533.66 4.867 2 7 2.26 3.6 6.06 3.867 11.4.8 4-2.133 9.06-6 15.2-11.6 6.13-5.733 10.86-10.933 14.2-15.6.26-.4.66-.6 1.2-.6 1.2 0 1.53.867 1 2.6-2 3.6-5.74 8.2-11.2 13.8-5.34 5.6-10.2 10.067-14.6 13.4-4.4 3.2-8.8 4.8-13.2 4.8-10.14 0-15.2-4.933-15.2-14.8v-1.2c.53-9.333 5.26-23.4 14.2-42.2 8.93-18.933 17-33.2 24.2-42.8l6.2-7.8c1.46-1.733 3.6-3.867 6.4-6.4 5.33-5.067 10.8-7.6 16.4-7.6 5.73 0 9.6 1.733 11.6 5.2.66 1.2 1 2.933 1 5.2 0 2.267-1 5.467-3 9.6-13.74 23.867-35.4 48.133-65 72.8z" fill="#000"/><path d="M1214.42 97c2.4-4.933 3.6-8.733 3.6-11.4s-.34-4.733-1-6.2c-.54-1.6-.27-2.933.8-4 1.2-1.067 2.66-1.467 4.4-1.2 2.66.667 4 3.667 4 9s-3.14 12.333-9.4 21c.13 3.6 2 5.4 5.6 5.4 3.6 0 9.06-3.867 16.4-11.6 3.46-4 5.6-6.6 6.4-7.8.93-1.2 1.73-1.6 2.4-1.2.66.267 1 .533 1 .8 0 1.333-2.4 4.8-7.2 10.4-7.6 9.333-14.34 14-20.2 14-3.87 0-6.6-1.667-8.2-5-2.67 2.8-5.27 5.4-7.8 7.8-5.2 4.4-11 6.6-17.4 6.6-3.6 0-6.6-.867-9-2.6-4.67-2.8-7-7.8-7-15 0-7.867 2.66-15.867 8-24 3.06-4.8 6.66-9 10.8-12.6 6.53-5.733 12.73-8.6 18.6-8.6 1.46 0 2.86.2 4.2.6 4 1.333 6 3.867 6 7.6 0 3.067-.8 4.6-2.4 4.6-.67-.267-1-1.267-1-3 0-2.4-1.34-3.6-4-3.6-4.67 0-10.67 4.267-18 12.8-7.34 8.533-11.74 17.133-13.2 25.8-.27 1.467-.4 3.133-.4 5 0 1.733.6 3.8 1.8 6.2 1.2 2.267 3.4 3.4 6.6 3.4 3.33 0 6.93-1.467 10.8-4.4 3.86-2.933 7.33-6.667 10.4-11.2l-.6-1.2c-.54-2.133-.27-3.867.8-5.2 1.06-1.333 2.46-1.733 4.2-1.2z" fill="#000"/><path d="M1269.53 124c-6.8 0-10.2-4.067-10.2-12.2 0-8.267 5.87-18.4 17.6-30.4.94-.933 1.6-1.667 2-2.2l1.4-2c1.87-2.533 2.74-4.133 2.6-4.8l-.6-1.8c-.53-1.6-2.73-2.733-6.6-3.4-3.86-.8-7-1.2-9.4-1.2-12 16.933-18.93 26.6-20.8 29-1.86 2.4-3.13 3.4-3.8 3-.66-.4-1-.867-1-1.4 0-.533.4-1.333 1.2-2.4 7.2-8.8 13.4-18.2 18.6-28.2-1.6-.267-2.8-.8-3.6-1.6-.8-.933-.86-2.4-.2-4.4.67-2.133 2.67-4.933 6-8.4 3.47-3.467 6.47-5.8 9-7 2.54-1.2 4.14-1.933 4.8-2.2.67-.267 1.4-.4 2.2-.4 1.6 0 1.07 2.4-1.6 7.2l-7.8 12.4c6 .4 11.14.6 15.4.6l7-.2c2.27 0 3.94.333 5 1 1.07.533 1.34 1.533.8 3-.93 2.533-3.26 5.933-7 10.2-8 9.333-14 19.267-18 29.8-.93 2.533-1.4 4.733-1.4 6.6 0 3.867 1.4 5.8 4.2 5.8.94 0 2.67-.733 5.2-2.2 2.67-1.467 7.07-4.933 13.2-10.4 6.14-5.6 11.07-11.067 14.8-16.4.54-.667 1.14-.8 1.8-.4.8.267 1.2.6 1.2 1 0 .267-.13.6-.4 1-2 3.6-5.6 8.2-10.8 13.8-5.2 5.6-10.26 10.133-15.2 13.6-4.8 3.733-10 5.6-15.6 5.6z" fill="#000"/><path d="M1301.02 195.2c-1.07 0-2.4-.2-4-.6-6.8-1.733-10.2-5.333-10.2-10.8 0-5.333 3.53-12.067 10.6-20.2 6.93-8.133 21.67-19.667 44.2-34.6 12.53-25.6 20.47-43.533 23.8-53.8-1.6 1.867-4.73 5.933-9.4 12.2-4.67 6.133-8.8 11.4-12.4 15.8-3.6 4.267-7.93 8.333-13 12.2-5.07 3.867-9.73 5.8-14 5.8s-7.6-.933-10-2.8c-2.27-2-3.53-4.067-3.8-6.2s-.4-3.933-.4-5.4c0-4.933 1.33-9.867 4-14.8 4-8.133 9.4-15.133 16.2-21 2.53-2.4 4.73-3.6 6.6-3.6 2 0 3.8.6 5.4 1.8 1.73 1.867 2.27 3.467 1.6 4.8-5.07 2.933-10.87 8.6-17.4 17-3.47 4.533-5.87 10.267-7.2 17.2-.13.933-.2 2.133-.2 3.6 0 1.333.53 2.467 1.6 3.4 1.2.8 2.4 1.2 3.6 1.2 4.13 0 8.47-2.2 13-6.6 4.53-4.4 8.87-9 13-13.8 4.13-4.933 8.8-10.8 14-17.6 5.33-6.8 8.8-11.267 10.4-13.4 1.73-2.133 3.47-3.2 5.2-3.2 2.13 0 4.33.6 6.6 1.8 2.27 1.2 3.2 2.133 2.8 2.8-.27.667-3.67 8.267-10.2 22.8-6.4 14.4-11.07 24.733-14 31 3.2-1.733 8.6-5.8 16.2-12.2 7.73-6.533 14.27-13.133 19.6-19.8 1.33-1.6 2.2-1.733 2.6-.4.13.267.2.733.2 1.4 0 .533-.4 1.333-1.2 2.4-4.13 5.467-10.73 12.333-19.8 20.6-9.07 8.267-16.27 13.867-21.6 16.8-11.33 23.333-18.93 38-22.8 44-10 14.8-19.87 22.2-29.6 22.2zm36.8-58.6c-16 12-27.47 21.467-34.4 28.4-6.8 6.933-10.2 12.867-10.2 17.8 0 5.067 1.73 7.6 5.2 7.6 2.67 0 5.73-1.4 9.2-4.2 3.47-2.667 6.8-6.267 10-10.8s5.6-8.467 7.2-11.8c1.73-3.2 4.07-8 7-14.4 2.93-6.267 4.93-10.467 6-12.6z" fill="#000"/></svg>