<svg viewBox="0 0 699 112" fill="none" xmlns="http://www.w3.org/2000/svg">
  <path fill-rule="evenodd" clip-rule="evenodd" d="M0 109.617c0-.993.65-1.721 1.952-2.184 9.274-3.575 18.548-14.497 27.822-32.766 7.273-14.298 12.978-29.357 17.114-45.178 1.635-6.255 2.453-10.773 2.453-13.553 0-1.026-.234-1.539-.701-1.539-4.404 0-9.975 3.343-16.714 10.028-.667.662-1.41.993-2.227.993a6.121 6.121 0 0 1-2.402-.496 8.377 8.377 0 0 1-2.126-1.29c-1.502-1.16-2.252-2.342-2.252-3.55 0-1.209.383-2.326 1.15-3.352.768-1.026 1.802-2.018 3.103-2.978 1.301-.96 2.786-1.845 4.454-2.656 1.668-.811 3.42-1.531 5.254-2.16C40.75 7.646 43.727 7 45.812 7c2.086 0 3.912.124 5.48.372 1.568.249 3.07.67 4.504 1.266 3.47 1.49 5.204 3.624 5.204 6.405 0 4.964-1.568 12.89-4.704 23.78C52.96 50.34 48.59 61.61 43.186 72.63c-7.807 15.49-16.047 26.627-24.72 33.412C13.393 110.014 8.59 112 4.052 112c-1.701 0-2.935-.447-3.703-1.34a1.643 1.643 0 0 1-.35-1.043zm65.509-29.498c-1.387-1.327-2.476-3.01-3.269-5.051-.792-2.04-1.205-4.454-1.238-7.24-.033-2.787.306-5.607 1.015-8.46a41.716 41.716 0 0 1 7.726-15.724c1.833-2.322 3.855-4.346 6.067-6.07C80.63 33.857 85.632 32 90.816 32c6.802 0 11.407 3.002 13.818 9.007 1.716 4.346 1.815 9.604.297 15.774-1.387 5.673-3.929 10.88-7.627 15.625-3.665 4.744-7.99 8.11-12.976 10.101C81.82 83.502 79.351 84 76.924 84c-2.426 0-4.589-.315-6.487-.945-1.899-.63-3.541-1.61-4.928-2.936zm9.638-23.656a49.532 49.532 0 0 0-2.334 7.646c-.573 2.616-.843 5.09-.81 7.42.032 2.331.385 4.16 1.056 5.484.671 1.325 1.76 1.987 3.267 1.987s2.99-.528 4.447-1.585c1.458-1.056 2.874-2.456 4.25-4.2 1.376-1.744 2.67-3.757 3.881-6.037a58.155 58.155 0 0 0 3.194-7.144c1.998-5.4 2.964-10.195 2.899-14.387 0-3.69-.737-6.037-2.211-7.043-.59-.403-1.417-.604-2.481-.604-1.065 0-2.285.495-3.66 1.484-1.376.99-2.752 2.322-4.128 4-1.376 1.676-2.702 3.638-3.98 5.885a56.175 56.175 0 0 0-3.39 7.094zM111 74.785c0-1.029.224-1.984.672-2.864.448-.88 1.003-1.618 1.667-2.216 1.393-1.295 2.853-1.942 4.379-1.942 1.327 0 1.99.68 1.99 2.042 0 3.453 1.145 5.86 3.434 7.222.83.498 1.692.747 2.588.747.896 0 1.659-.1 2.289-.299.63-.2 1.211-.515 1.742-.946 1.194-.963 1.791-2.109 1.791-3.437 0-1.328-.298-2.549-.896-3.661a30.455 30.455 0 0 0-2.239-3.511l-2.836-3.985c-3.981-5.313-5.972-10.21-5.972-14.694 0-3.719 1.576-7.089 4.728-10.11C127.92 33.71 132.514 32 138.121 32c4.91 0 8.742 1.212 11.495 3.636 2.256 1.96 3.384 4.2 3.384 6.724 0 2.623-.995 4.715-2.986 6.276-1.791 1.395-3.583 1.91-5.374 1.544-.796-.166-1.41-.573-1.841-1.22-.432-.648-.515-1.387-.249-2.217.265-.83.398-1.693.398-2.59a6.18 6.18 0 0 0-.498-2.49 5.814 5.814 0 0 0-1.343-1.943c-1.161-1.096-2.381-1.643-3.658-1.643-1.277 0-2.331.14-3.16.423a6.73 6.73 0 0 0-2.19 1.22c-1.293 1.196-1.94 2.665-1.94 4.408 0 1.744.298 3.246.895 4.508a26.467 26.467 0 0 0 2.215 3.785 76.586 76.586 0 0 0 2.861 3.836 38.905 38.905 0 0 1 2.837 4.084c2.09 3.354 3.135 6.3 3.135 8.841 0 2.54-.531 4.665-1.592 6.376-1.062 1.71-2.439 3.179-4.131 4.407-3.616 2.69-7.663 4.035-12.142 4.035-4.28 0-7.664-1.03-10.152-3.088-2.057-1.727-3.085-3.769-3.085-6.127zm81.863-33.181c-1.839 0-5.131 2.773-9.878 8.32l-4.162 5.052-8.023 10.352c-1.938 3.632-3.459 6.653-4.563 9.063l-2.707 5.746c-.702 1.42-1.312 2.418-1.83 2.996-.519.578-1.221.867-2.106.867a7.093 7.093 0 0 1-2.558-.47 7.602 7.602 0 0 1-2.131-1.214c-1.27-1.057-1.905-2.212-1.905-3.467 0-.495.351-1.47 1.053-2.922l2.006-4.012c6.251-12.712 11.917-28.825 16.998-48.34 1.872-7.198 3.226-13.67 4.061-19.415.368-2.773 1.738-4.16 4.112-4.16 1.538 0 2.808.363 3.811 1.09 1.938 1.42 2.874 2.938 2.808 4.556-.067 1.618-.301 3.434-.702 5.448-.402 2.014-.92 4.202-1.555 6.563a218.891 218.891 0 0 1-2.156 7.454c-2.206 6.637-3.844 11.424-4.914 14.363-3.276 8.882-5.298 14.083-6.067 15.602a93.208 93.208 0 0 0 1.956-2.427c6.084-7.892 9.844-12.605 11.282-14.14 1.437-1.536 2.657-2.717 3.66-3.542 2.106-1.816 4.78-2.724 8.023-2.724 2.64 0 4.763.875 6.368 2.625 1.504 1.684 2.256 3.525 2.256 5.522 0 1.998-.226 3.797-.677 5.399a40.618 40.618 0 0 1-1.73 4.878 129.887 129.887 0 0 1-2.306 5.102l-2.507 5.2c-2.34 5.25-3.51 9.147-3.51 11.689 0 1.783.735 2.675 2.206 2.675 1.404 0 2.682-.298 3.836-.892 1.153-.594 1.897-.892 2.231-.892.702 0 1.053.347 1.053 1.04 0 2.94-1.504 5.4-4.513 7.38-2.072 1.354-3.961 2.031-5.666 2.031-1.705 0-3.117-.173-4.237-.52a7.796 7.796 0 0 1-2.983-1.709c-1.972-1.783-2.959-4.408-2.959-7.875 0-3.73 1.237-8.42 3.711-14.066l5.415-11.391c1.037-2.114 1.555-3.781 1.555-5.003 0-1.221-.686-1.832-2.056-1.832zM259.229 73.7c.756 0 1.135.381 1.135 1.144 0 2.886-1.415 5.308-4.244 7.265-1.909 1.26-4.146 1.891-6.712 1.891-2.106 0-3.718-.498-4.837-1.493-2.007-1.791-3.01-3.98-3.01-6.568 0-3.284 1.365-8.31 4.096-15.078-5.067 6.9-8.62 11.487-10.66 13.76-2.039 2.272-3.816 4.038-5.33 5.299-3.29 2.72-6.267 4.08-8.932 4.08-4.08 0-6.794-1.775-8.143-5.324-.395-1.095-.592-2.347-.592-3.757 0-1.41.239-2.986.716-4.728a51.04 51.04 0 0 1 1.85-5.448c.757-1.891 1.579-3.832 2.468-5.822l2.665-5.972c3.421-7.663 4.688-12.208 3.8-13.634-.395-.63-1.135-1.26-2.221-1.891-.395-.232-.592-.639-.592-1.22 0-.58.238-1.135.715-1.666.477-.531 1.094-.995 1.851-1.393 1.612-.764 3.224-1.145 4.836-1.145s2.838.174 3.677.523c.839.348 1.522.787 2.048 1.318 1.086 1.095 1.629 2.306 1.629 3.633s-.214 2.811-.642 4.453a62.805 62.805 0 0 1-1.678 5.35 180.684 180.684 0 0 1-2.27 5.97c-2.27 5.375-3.8 8.925-4.59 10.65l-1.826 3.831c-1.02 2.29-1.53 3.898-1.53 4.827 0 .929.149 1.584.445 1.966.296.381.83.572 1.604.572.773 0 1.669-.365 2.689-1.095s2.139-1.708 3.356-2.936a60.048 60.048 0 0 0 3.8-4.254 107.842 107.842 0 0 0 3.849-5.001c2.468-3.384 4.277-6.104 5.429-8.161 6.975-12.44 10.693-18.942 11.153-19.506 1.053-1.427 2.13-2.14 3.233-2.14 1.102 0 2.064.124 2.887.373.822.249 1.53.606 2.122 1.07 1.382 1.028 1.826 2.057 1.332 3.085-8.028 16.886-12.354 27.501-12.979 31.847-.165 1.493-.247 2.521-.247 3.085 0 2.522.757 3.782 2.27 3.782 1.415 0 2.583-.257 3.504-.771.921-.514 1.547-.772 1.876-.772zm48.605-3.475c0 3.05 1.082 4.574 3.246 4.574 1.499 0 2.739-.233 3.721-.697.983-.463 1.64-.695 1.973-.695.7 0 1.049.364 1.049 1.093 0 2.85-1.498 5.302-4.495 7.357-3.163 2.154-6.393 2.684-9.69 1.59-2.164-.762-3.762-2.402-4.795-4.92-.499-1.293-.749-2.47-.749-3.53 0-1.723.167-3.546.5-5.468-3.097 6.297-6.943 10.638-11.538 13.024a12.751 12.751 0 0 1-5.844 1.392c-2.064 0-3.854-.423-5.369-1.268-1.515-.845-2.805-2.013-3.871-3.504-2.164-3.115-3.146-7.026-2.947-11.731.2-5.899 1.948-11.682 5.245-17.348 3.03-5.303 6.859-9.627 11.487-12.974 4.629-3.413 8.957-5.12 12.987-5.12 4.029 0 7.275 1.84 9.739 5.518 2.298-3.679 4.329-5.518 6.094-5.518 1.898 0 3.329.348 4.295 1.044 1.831 1.325 2.481 2.485 1.948 3.48-8.358 17.033-12.653 27.637-12.886 31.813a16.94 16.94 0 0 0-.1 1.888zM280 71.024c0 3.984 1.291 5.976 3.873 5.976 1.979 0 4.41-1.66 7.294-4.98 4.225-4.881 7.964-11.455 11.217-19.722a70.403 70.403 0 0 0 2.616-7.77c-.134-2.258-1.09-3.918-2.867-4.98-.604-.365-1.501-.548-2.691-.548-1.191 0-2.582.432-4.175 1.295s-3.136 2.042-4.628 3.536c-1.492 1.494-2.884 3.262-4.175 5.304a42.125 42.125 0 0 0-3.396 6.649C281.023 60.897 280 65.977 280 71.024zm123.272-52.92c0-3.454-2.359-5.18-7.076-5.18-5.42 0-10.538 2.573-15.356 7.72-2.843 3.055-4.851 6.375-6.022 9.961-.602 1.727-.903 3.288-.903 4.682 0 1.395.159 2.532.477 3.412.318.88.728 1.602 1.229 2.167 1.037 1.228 2.242 1.693 3.613 1.395 1.64-.665 3.087-.997 4.341-.997 1.255 0 2.258.158 3.011.473.753.316 1.38.706 1.882 1.171.937.93 1.405 1.826 1.405 2.69 0 1.693-.569 2.573-1.706 2.64-1.439.1-3.17.58-5.194 1.444a30.591 30.591 0 0 0-5.846 3.312 29.085 29.085 0 0 0-5.018 4.558c-3.346 3.785-5.019 7.637-5.019 11.555 0 4.085 1.623 6.79 4.868 8.119 1.071.465 2.392.697 3.964.697 1.573 0 3.103-.34 4.592-1.02 1.489-.681 2.785-1.537 3.889-2.566 2.376-2.258 3.597-4.632 3.664-7.122.067-3.155-1.238-5.13-3.915-5.928-.702-.199-1.262-.423-1.681-.672-.418-.25-.535-.656-.351-1.22.184-.565.56-1.13 1.129-1.694 1.405-1.527 2.961-2.291 4.667-2.291.769 0 1.924.166 3.463.498 2.877.631 4.968.946 6.272.946 2.744 0 4.902-.19 6.474-.572a331.67 331.67 0 0 0 3.914-.972c1.773-.498 2.66-.083 2.66 1.245a6.498 6.498 0 0 1-1.104 3.662c-.736 1.112-1.723 2.083-2.961 2.913-2.676 1.76-5.955 2.607-9.836 2.54.101.499.151.997.151 1.495 0 1.86-.619 3.785-1.857 5.777-1.238 1.993-2.91 3.82-5.018 5.48C385.29 82.14 379.82 84 373.664 84c-6.089 0-10.722-1.694-13.9-5.08-2.509-2.69-3.764-5.845-3.764-9.464 0-7.239 3.011-13.664 9.033-19.276 2.041-1.926 3.981-3.254 5.821-3.985-3.58-1.494-5.972-4.4-7.176-8.716-.368-1.395-.552-3.022-.552-4.881 0-1.86.368-3.877 1.104-6.052a25.783 25.783 0 0 1 3.136-6.251c1.355-1.992 2.978-3.86 4.868-5.603a31.614 31.614 0 0 1 6.298-4.508C383.584 7.394 388.886 6 394.44 6c5.62 0 9.919 1.66 12.897 4.98 2.442 2.69 3.663 5.961 3.663 9.813 0 4.051-1.723 8.069-5.169 12.054-3.345 3.918-6.557 5.877-9.635 5.877-1.74 0-3.312-.73-4.717-2.191-1.271-1.329-1.907-2.508-1.907-3.537 0-1.03.284-1.693.853-1.992 5.855-3.155 9.769-6.293 11.743-9.414.736-1.162 1.104-2.324 1.104-3.486zm99.835 58.116c.599 0 .899.366.899 1.097 0 .732-.242 1.463-.724 2.195-.483.731-1.19 1.43-2.122 2.094-2.297 1.596-4.735 2.394-7.315 2.394s-4.669-.382-6.266-1.147a17.564 17.564 0 0 1-4.444-3.067 26.35 26.35 0 0 1-3.745-4.414 67.63 67.63 0 0 1-3.195-5.187l-2.946-5.386c-3.429-6.516-6.324-10.323-8.688-11.42-6.757 18.12-13.997 28.177-21.719 30.172-.5.133-1.057.2-1.673.2-.616 0-1.182-.1-1.697-.3a4.207 4.207 0 0 1-1.324-.798c-.765-.631-1.148-1.305-1.148-2.02 0-.714.266-1.271.799-1.67 5.758-4.223 11.567-15.095 17.425-32.616 3.396-10.208 5.759-19.417 7.09-27.63.366-2.294.55-4.056.55-5.286a8.923 8.923 0 0 0-3.82 1.047 45.463 45.463 0 0 0-3.021 1.746c-.832.532-1.514.798-2.047.798-.533 0-1.107-.166-1.722-.499a7.18 7.18 0 0 1-1.673-1.247c-1.165-1.163-1.748-2.194-1.748-3.092 0-.898.275-1.646.824-2.244.549-.599 1.24-1.114 2.072-1.546a16.89 16.89 0 0 1 2.771-1.122 23.394 23.394 0 0 1 2.971-.723c1.831-.366 3.412-.549 4.743-.549 1.332 0 2.73.208 4.195.623 1.464.416 2.729 1.023 3.794 1.82 2.33 1.696 3.495 3.791 3.495 6.285 0 5.286-1.597 13.664-4.793 25.135a179.945 179.945 0 0 1-3.495 11.172c8.055-6.218 12.94-10.033 14.654-11.446 1.715-1.413 3.604-3.117 5.667-5.112 2.064-1.995 3.878-4.056 5.443-6.184 3.395-4.655 5.092-9.326 5.092-14.014 0-1.73-.449-3.242-1.348-4.539-.266-.432-.399-.847-.399-1.246 0-.4.158-.765.474-1.098a4.186 4.186 0 0 1 1.174-.847c.865-.366 1.972-.549 3.32-.549 1.348 0 2.563.29 3.645.873a8.905 8.905 0 0 1 2.721 2.22C507.284 10.92 508 13.106 508 15.65c0 2.544-.516 5.004-1.548 7.381-1.032 2.378-2.405 4.614-4.119 6.708-1.714 2.095-3.687 4.09-5.917 5.985a110.87 110.87 0 0 1-6.94 5.436l-7.29 5.187a116.586 116.586 0 0 0-6.69 4.987c2.43 1.895 5.259 5.203 8.488 9.924l3.844 5.736c2.763 4.222 4.993 6.99 6.691 8.303 1.698 1.314 3.104 1.97 4.219 1.97 1.115 0 2.022-.174 2.721-.523.699-.35 1.248-.524 1.648-.524zm5.91-10.134a32.797 32.797 0 0 1 1.427-8.285 40.233 40.233 0 0 1 3.297-7.663 44.792 44.792 0 0 1 4.848-7.017 38.325 38.325 0 0 1 6.029-5.797c4.692-3.55 9.433-5.324 14.223-5.324 5.611 0 9.351 2.339 11.221 7.016.657 1.593.968 3.475.936 5.648-.033 2.173-.443 4.18-1.231 6.021a17.494 17.494 0 0 1-3.273 5.026c-1.394 1.51-3.051 2.861-4.97 4.056a33.938 33.938 0 0 1-6.275 3.035c-4.659 1.659-9.647 2.521-14.962 2.587-.131.465-.213 1.162-.246 2.09-.033.93.066 1.966.295 3.11.23 1.145.624 2.165 1.181 3.06 1.182 1.991 2.888 2.986 5.119 2.986 3.806 0 7.513-1.128 11.123-3.383 1.279-.763 2.321-1.551 3.125-2.364.804-.813 1.501-1.22 2.091-1.22.591 0 1.108.357 1.551 1.07.443.714.664 1.519.664 2.414 0 1.758-.492 3.284-1.476 4.578-4.134 4.18-10.286 6.27-18.456 6.27-4.823 0-8.695-1.46-11.615-4.379-3.281-3.317-4.823-7.829-4.626-13.535zM537.576 39c-3.474 0-6.816 2.41-10.025 7.233-2.713 4.152-4.897 9.074-6.551 14.767 5.525-.57 10.323-2.78 14.392-6.63 3.739-3.617 5.608-7.082 5.608-10.397 0-3.316-1.141-4.973-3.424-4.973zm21.167 42.524c-.816-.859-1.478-1.957-1.984-3.294S556 75.34 556 73.574c0-1.766.4-4.135 1.2-7.107.8-2.972 1.821-6.356 3.061-10.153l4.115-12.333c5.845-17.17 9.224-30.443 10.139-39.82.294-2.774 1.632-4.161 4.016-4.161 1.502 0 2.743.363 3.723 1.09 1.894 1.452 2.808 3.07 2.743 4.853-.066 1.783-.376 3.954-.931 6.513-.555 2.56-1.273 5.35-2.155 8.37a233.7 233.7 0 0 1-3.037 9.584l-6.759 20.109c-3.886 11.424-5.829 18.804-5.829 22.139 0 1.783.718 2.675 2.155 2.675 1.372 0 2.621-.298 3.747-.892 1.127-.594 1.853-.892 2.18-.892.686 0 1.028.347 1.028 1.04 0 2.94-1.485 5.4-4.457 7.38-1.992 1.354-3.812 2.031-5.461 2.031-1.649 0-2.98-.198-3.992-.594-1.012-.397-1.927-1.024-2.743-1.882zM582 74.785c0-1.029.224-1.984.672-2.864.448-.88 1.003-1.618 1.667-2.216 1.393-1.295 2.853-1.942 4.379-1.942 1.327 0 1.99.68 1.99 2.042 0 3.453 1.145 5.86 3.434 7.222.83.498 1.692.747 2.588.747.896 0 1.659-.1 2.289-.299.63-.2 1.211-.515 1.742-.946 1.194-.963 1.791-2.109 1.791-3.437 0-1.328-.298-2.549-.896-3.661a30.455 30.455 0 0 0-2.239-3.511l-2.836-3.985c-3.981-5.313-5.972-10.21-5.972-14.694 0-3.719 1.576-7.089 4.728-10.11C598.92 33.71 603.514 32 609.121 32c4.91 0 8.742 1.212 11.495 3.636 2.256 1.96 3.384 4.2 3.384 6.724 0 2.623-.995 4.715-2.986 6.276-1.791 1.395-3.583 1.91-5.374 1.544-.796-.166-1.41-.573-1.841-1.22-.432-.648-.515-1.387-.249-2.217.265-.83.398-1.693.398-2.59a6.18 6.18 0 0 0-.498-2.49 5.814 5.814 0 0 0-1.343-1.943c-1.161-1.096-2.381-1.643-3.658-1.643-1.277 0-2.331.14-3.16.423a6.73 6.73 0 0 0-2.19 1.22c-1.293 1.196-1.94 2.665-1.94 4.408 0 1.744.298 3.246.895 4.508a26.467 26.467 0 0 0 2.215 3.785 76.586 76.586 0 0 0 2.861 3.836 38.905 38.905 0 0 1 2.837 4.084c2.09 3.354 3.135 6.3 3.135 8.841 0 2.54-.531 4.665-1.592 6.376-1.062 1.71-2.439 3.179-4.131 4.407-3.616 2.69-7.663 4.035-12.142 4.035-4.28 0-7.664-1.03-10.152-3.088-2.057-1.727-3.085-3.769-3.085-6.127zm72.606-53.623a9.277 9.277 0 0 1-2.443 1.892 8.035 8.035 0 0 1-2.883.909 5.048 5.048 0 0 1-2.858-.48 6.775 6.775 0 0 1-2.321-1.867C642.7 19.934 642 18.235 642 16.519c0-1.716.269-3.002.806-3.86a6.813 6.813 0 0 1 2.028-2.095C646.397 9.521 647.871 9 649.256 9c1.384 0 2.459.1 3.224.303a6.376 6.376 0 0 1 2.126 1.01c1.596 1.11 2.394 2.463 2.394 4.061 0 1.598-.22 2.927-.66 3.987a9.886 9.886 0 0 1-1.734 2.8zm-10.17 53.035c.861 0 1.292.564 1.292 1.692 0 1.493-.679 3.035-2.037 4.628-1.987 2.322-4.653 3.483-7.998 3.483-3.841 0-6.474-1.56-7.898-4.677-.53-1.095-.795-2.422-.795-3.981 0-1.56.273-3.293.82-5.2a71.86 71.86 0 0 1 2.036-6.021 135.94 135.94 0 0 1 2.658-6.395l2.633-6.27c1.921-4.677 2.881-7.762 2.881-9.255 0-1.493-.157-2.48-.472-2.96-.314-.482-.654-.855-1.018-1.12l-.994-.697c-.331-.232-.497-.639-.497-1.22 0-.58.224-1.135.671-1.666.447-.531 1.035-.995 1.764-1.393 1.49-.764 3.229-1.145 5.216-1.145 4.868 0 7.302 1.277 7.302 3.832 0 2.985-.778 6.394-2.335 10.225-1.556 3.832-2.881 6.925-3.974 9.28l-2.98 6.868c-2.186 5.042-3.279 8.675-3.279 10.897 0 1.46.729 2.19 2.186 2.19 1.424 0 2.5-.183 3.229-.547.728-.365 1.258-.548 1.589-.548zm12.581-8.11a32.797 32.797 0 0 1 1.427-8.286 40.233 40.233 0 0 1 3.297-7.663 44.792 44.792 0 0 1 4.848-7.017 38.325 38.325 0 0 1 6.029-5.797c4.692-3.55 9.433-5.324 14.223-5.324 5.611 0 9.351 2.339 11.221 7.016.657 1.593.968 3.475.936 5.648-.033 2.173-.443 4.18-1.231 6.021a17.494 17.494 0 0 1-3.273 5.026c-1.394 1.51-3.051 2.861-4.97 4.056a33.938 33.938 0 0 1-6.275 3.035c-4.659 1.659-9.647 2.521-14.962 2.587-.131.465-.213 1.162-.246 2.09-.033.93.066 1.966.295 3.11.23 1.145.624 2.165 1.181 3.06 1.182 1.991 2.888 2.986 5.119 2.986 3.806 0 7.513-1.128 11.123-3.383 1.279-.763 2.321-1.551 3.125-2.364.804-.813 1.501-1.22 2.091-1.22.591 0 1.108.357 1.551 1.07.443.714.664 1.519.664 2.414 0 1.758-.492 3.284-1.476 4.578-4.134 4.18-10.286 6.27-18.456 6.27-4.823 0-8.695-1.46-11.615-4.379-3.281-3.317-4.823-7.829-4.626-13.535zM686.576 39c-3.474 0-6.816 2.41-10.025 7.233-2.713 4.152-4.897 9.074-6.551 14.767 5.525-.57 10.323-2.78 14.392-6.63 3.739-3.617 5.608-7.082 5.608-10.397 0-3.316-1.141-4.973-3.424-4.973z" fill="#fff"/>
</svg>
