<svg xmlns="http://www.w3.org/2000/svg" fill="none" viewBox="0 0 1000 200"><path fill="#009246" d="M356.7 148.9a872 872 0 0 0 29.3-1.4l-47.8 48.2a1163 1163 0 0 1-38.9 2.4z"/><path fill="#fff" d="M386 147.5q14.7-1 29.4-2.3l-38.2 47a1433 1433 0 0 1-39 3.5z"/><path fill="#e92e2f" d="m415.4 145.2 29.4-3-28.7 45.4a1856 1856 0 0 1-39 4.5zm-232.9 50.5c39 3.6 77.9 4 116.8 2.4l57.4-49.2c-29.4.8-58.8.1-88.1-3z"/><path fill="#fff" d="M196.9 187.4c37.3 3.5 74.6 4 112 2.5L347 157c-31 1-62 .3-92.9-3z"/><path fill="#002f6c" d="M211.2 179a781 781 0 0 0 107.2 2.7l19.2-16.4c-32.6 1.1-65.2.5-97.7-2.9z"/><path fill="#488a30" d="M777.3 143a850 850 0 0 1 95 2q-40.7-8-76.6-14.6a159 159 0 0 1-18.4 12.6m11.7-28.3a642 642 0 0 0-71.7-2.4q30 5.9 65 12.5 5.7-5.7 6.7-10.1"/><path fill="#000" d="M761 140.6q11.7-7.3 18.4-13.2l-65-12zm114.2 2.4-70-24.7q-1 4.2-6.7 9.6 36 6.9 76.7 15.1"/><path fill="#f1da28" d="m766.4 143.5 11-.5a159 159 0 0 0 18.3-12.6q36 6.6 76.6 14.5l11 1q-50.8-10.4-94.3-18.3-7.8 6.8-22.6 15.9m22.6-28.8q-1 4.5-6.7 10l-65-12.4-8.2.2q36.3 7 79.9 15 7.6-6.8 8.2-12z"/><path fill="#f1da28" d="M797.2 115.5q-.6 5.3-8.2 12 43.5 8.1 94.2 18.4l-8-2.9q-40.7-8.2-76.7-15.1 5.7-5.4 6.7-9.6zm-82.8-.1 65 12q-6.7 6-18.3 13.2l5.3 2.9q15-9 22.6-16-43.5-8-80-15z"/><path fill="#0071bb" d="M649.7 153.9c38.9-5 77.8-8.8 116.7-10.4l-57.3-31Q665 114 621 119.2z"/><path fill="#f3d02f" d="m683.7 149.9 13.6-1.4-40.4-33-10.2 1z"/><path fill="#f3d02f" d="M638.2 140c35-4.3 70.2-7.6 105.3-9L732 125a1218 1218 0 0 0-99.6 8.2z"/><path fill="#0071bb" fill-rule="evenodd" d="M180.5 128.3a486 486 0 0 0 88 17.5l-43 25A563 563 0 0 1 123.2 151z" clip-rule="evenodd"/><path fill="#fce82b" fill-rule="evenodd" d="M123.1 151.1c34.2 10 68.3 16.2 102.4 19.7l-43 24.9C143.6 192 104.7 185 65.7 174z" clip-rule="evenodd"/><path fill="#fff" d="M532.9 170.8c38.9-6 77.8-12 116.8-16.9L621 119.2c-29.4 3.3-58.8 7.4-88.1 11.5z"/><path fill="#000" d="m594.3 128.8 5.4 3-1.5 1-5.3-3zm6.4 3.5 5.5 3-1.5 1-5.5-2.9zm-4.3-5.2 12 6.6-1.4 1-12-6.5zm2.1-1.6 5.4 3-1.4 1.1-5.4-3zm6.5 3.6 5.6 3-1.4 1-5.6-3zM562 150.5q5.1 3.4 10.7 6.7l-2 1.2-10.6-6.6zm-3 1.9 4.8 3-2 1.3-4.7-3.1zm5.7 3.6 5 3-2.1 1.3-5-3zm-8.6-1.8 10.4 6.7-2 1.2-10.5-6.7zm2-12.3 6-9q1.2.2 2.2.6l-6 9zm-3.1-.9 6-9.1 2.1.6-6 9.1zm-3.2-1 6.2-9 2 .6-6 9.1zm52.4 12.7 2.3-4 2.7.5-2.3 4zm2.7-4.8 2-4 2.7.5-2 4zm1.4 5.6 2.2-4 2.7.5-2.2 4zm2.6-4.8 2-4 2.6.6-2 4zm1.5 5.5 2.2-4 2.7.5-2.1 4zm2.6-4.7 1.9-4 2.7.6-2 4q-1.2-.4-2.6-.6"/><path fill="#b50037" d="m570.2 139.8-.2.1z"/><path fill="#e92e2f" d="M589 134.4c-7.8-2-15.6.4-18.8 5.4-1.6 2.5 0 5.3 4 6.3 3.8.9 8.4-.4 9.9-2.8 1.5-2.5 5.7-3.7 9.8-2.7 4 .9 6.4 3.6 5.1 6 2.7-4.8-2.4-10.2-10-12.2"/><path fill="#002f6c" d="M570.2 139.8c-1.6 2.5 0 5.3 4 6.3 3.8.9 8.4-.4 9.9-2.8 1.5-2.5 5.7-3.7 9.8-2.7 4 .9 6.4 3.6 5.1 6-2.7 4.9-12.5 7.5-20.7 5.7s-11.3-7.5-8.1-12.5"/><path fill="#fff" d="M416 187.6c39-4.9 78-10.9 116.9-16.8v-40.1c-29.4 4-58.8 8.2-88.1 11.5z"/><path fill="#e92e2f" d="M500.3 149.9q17.8-9 32.6-17.4v-1.8l-2 .3a724 724 0 0 1-37.4 19.8zm-4.4 12.7q16.8 4.2 37 7.8v-2.7q-15.9-3-29.7-6.2zm-53.3-17q9.3 5 21 9.4l6.8-1q-14.8-5.1-25.9-11.4zm20.7 21.6a1229 1229 0 0 1-47 20.2l-.2.2 7.4-1q25.3-10.3 47.2-20.4z"/><path fill="#002f6c" d="m526.8 131.5-30.8 4.3-4 14.2a725 725 0 0 0 34.8-18.5m-44.4 6-30.7 3.9q10.8 5.8 25.2 10.7zm50.5 7.7V136a724 724 0 0 1-23.4 12.6zm0 21V157l-25.4 3.8a533 533 0 0 0 25.4 5.3m-105.4 20 38.4-5.4 5.2-13.6a1221 1221 0 0 1-43.6 19m56.5-8 38.5-5.8a490 490 0 0 1-34.7-7.6zm-58.1-6-6.8 10.7a1211 1211 0 0 0 33-14.2zm8.5-13.6 24.2-3q-9.5-3.6-17.4-7.8z"/><path fill="#e92e2f" d="m485.1 137.2-6.5 18.2-45.9 6-5.1 8q24-3 48.2-6.3l-6.3 17.2 10.9-1.6 5.2-17 47.3-7v-7.2l-45 6.6 5.4-18z"/><path fill="#002f6c" d="M811.5 120.6q46.5 4.6 92.9 18.2l-19.1-5.7a486 486 0 0 0-88.1-17.6zm71.7 25.3c39 3.6 77.9 10.5 116.8 21.7l-19.1-5.8a614 614 0 0 0-112-21z"/><path fill="#e92e2f" d="M866.5 140q55.5 5 111.2 20.9l-70.1-21.1a516 516 0 0 0-93.7-18.4z"/><path fill="#fff" d="M813.9 121.4c31.2 3.3 62.5 9.1 93.7 18.4l-3.2-1q-46.5-13.6-92.9-18.2zm55 19.4a614 614 0 0 1 112 21l-3.2-1A609 609 0 0 0 866.5 140z"/><path fill="#fff" d="M858.4 129c6.8 1.2 22.4 5.5 35 9.4 12.4 4 16.1 5.9 8.2 4.6-7.8-1.3-23.5-5.3-34.8-9-11.4-3.9-15.2-6.1-8.4-5"/><path fill="#e92e2f" d="m859.1 129.3 17.3 5.1 9.2 1.7 1.6 1.5 17.7 5.2-16.9-4.2q.6.7 1 1.6l-11.2-4.2-16.2-4 9.1 1.4z"/><path fill="#1a1a1a" d="M637.9 3q0-1.7.6-2.4T641 0h9q1.8 0 2.3.6.7.8.7 2.4v6.8q0 1.8-.7 2.5t-2.4.6H641q-1.8 0-2.4-.6t-.6-2.5zm2.1 8.1h10.7V1.7H640zm22.7 1.8L655.6 0h2.3l5.7 10.7L669.1 0h2.1l-6.8 12.9zm11.4 0V0h12.4v1.7h-10.2v3.6h6.2V7h-6.2v4.1h10.3V13zm16.4 0V0H701q1.4 0 2 .6t.7 1.9v2.9q0 1.3-.6 1.9t-2.1.6H699l5.9 5h-3.2l-5.2-5h-3.8v5zm9.6-11.2h-7.4v4.5h7.4q.7 0 1-.3t.4-1V3q0-.7-.4-1-.3-.3-1-.3m19.2 0h-9.1v3.6h8.1q1.8 0 2.4.7t.6 2.4v1.4q0 1.8-.6 2.5t-2.4.6h-7.5q-1.8 0-2.4-.6t-.6-2.5v-.3l2-.5v2.1h9.6V7.2h-8.1q-1.8 0-2.4-.6t-.6-2.4V3q0-1.8.6-2.4t2.4-.6h6.8q1.7 0 2.4.6t.6 2.2v.3l-1.8.5zm7.3 11.2V0H739v1.7h-10.3v3.6h6.3V7h-6.3v4.1h10.4V13zm13.8 0 7-12.9h2.4l7.2 12.9h-2.4l-1.7-3.2h-8.7l-1.6 3.2zm4.7-4.8h7l-3.5-6.6zM771 1.7h-9.1v3.6h8q1.8 0 2.5.7t.6 2.4v1.4q0 1.8-.6 2.5t-2.4.6h-7.5q-1.8 0-2.4-.6-.7-.7-.7-2.5v-.3l2-.5v2.1h9.6V7.2h-8q-1.8 0-2.4-.6-.7-.6-.7-2.4V3q0-1.8.7-2.4t2.3-.6h7q1.5 0 2.2.6t.7 2.2v.3l-1.8.5zM786.2 13V0h12.3v1.7h-10.1V6h5.8v1.7h-5.8v5.2zm14.7 0V0h2.2v12.9zm7.6 0V0H821v1.7h-10.2v3.6h6.2V7h-6.2v4.1H821V13zm16.4 0V0h2.2v11.1h9.7v1.8zM847.1 0q3.3 0 5 1 1.2.8 1.9 2.2t.7 3.2q0 3.7-2.7 5.5-1.5 1-5 1h-7V0zm-.3 1.7H842v9.4h4.7q3 0 4.3-1 1.5-1.1 1.4-3.7 0-2.6-1.4-3.7-1.4-1-4.3-1M867 13V0h10.4q1.4 0 2 .6t.7 1.9v2.9q0 1.3-.6 1.9t-2.1.6h-1.9l5.9 5h-3.2l-5.2-5h-3.8v5zm9.6-11.2h-7.4v4.5h7.4q.7 0 1-.3t.4-1V3q0-.7-.4-1-.3-.3-1-.3m8.2 11.2V0h12.4v1.7H887v3.6h6.2V7H887v4.1h10.3V13zm16.4 0V0h10.4q1.5 0 2 .6.7.6.7 1.9v2.9q0 1.3-.7 1.9-.5.6-2 .6h-8.2v5zm9.5-11.2h-7.3V6h7.3q1 0 1.1-.2.3-.3.3-1V3q0-.7-.3-1-.4-.3-1-.3m7.5 1.3q0-1.7.6-2.4t2.4-.6h9q1.7 0 2.3.6.6.8.6 2.4v6.8q0 1.8-.6 2.5t-2.4.6h-8.9q-1.8 0-2.4-.6t-.6-2.5zm2.1 8.1H931V1.7h-10.7zm18.1 1.8V0h10.4q1.4 0 2 .6t.7 1.9v2.9q0 1.3-.6 1.9t-2.1.6h-2l6 5h-3.2l-5.2-5h-3.8v5zM948 1.7h-7.4v4.5h7.4q.7 0 1-.3t.4-1V3q0-.7-.4-1-.3-.3-1-.3m13.2 0V13h-2.1V1.7h-6V0h14v1.7zM114.7 59.2c0 38.1-25 62-57.8 62C22.4 121.2 0 95 0 62.2 0 33.3 18.5 0 59.3 0c31.3 0 55.4 23.9 55.4 59.2m-83-3c0 32.2 11.7 55.7 28.5 55.7 14.7 0 22.7-14.8 22.7-47 0-35.9-12.3-55.6-27-55.6-13.2 0-24.1 15.6-24.1 46.8m488.7 19.6c0 27.4-17.4 44.6-40.4 44.6-24.2 0-39.8-18.8-39.8-42.4 0-20.8 12.9-44.8 41.5-44.8 21.9 0 38.7 17.2 38.7 42.6m-58-2.2c0 23.2 8.1 40.2 19.9 40.2 10.3 0 15.9-10.7 15.9-34 0-25.7-8.6-40-19-40-9.1 0-16.8 11.4-16.8 33.8"/><path fill="#1a1a1a" d="M151.2 53.6h11.6c14.7 0 15.3-1 17-14h7.5v40.6h-7.5c-1.7-14.5-2.3-15.6-17-15.6h-11.6v25.5c0 19.8 1.4 21 15.4 22.2v7.1h-57v-7.1c11.2-1.1 12.6-2.4 12.6-22.2V29.6c0-19.8-1.4-21-12.7-22.1V.3h82.6L194 31l-7.6.6c-1.7-9.4-3.6-14.5-6.3-17.4-2.7-3.2-8.4-4.3-17.4-4.3h-8c-3.1 0-3.5 0-3.5 6.8zM399 99c0 13.9 1 14.8 10.9 15.5v5H370v-5c8.2-.7 9.1-1.6 9.1-15.5V56.6c0-13.9-1-14.8-8.5-15.6v-5h35c11.2 0 17.8 1.8 22.6 5.6a22 22 0 0 1 8.5 18.4c0 17.2-12 26-25.4 27.4H408l-9-2.1zm0-20q2.2.9 5.1 1c3.9 0 11.3-3 11.3-20 0-13.3-6.8-17.4-12.2-17.4-4 0-4.2.6-4.2 4.6zM966 36v5c-9.2 1-9.6 1.5-9.3 15l1.2 42.9c.4 14.2.6 14.6 9.2 15.5v5h-37.4v-5c9-.9 9.3-1.3 9.2-15.5l-.4-45.2h-.4L915 118h-6.5l-21.9-59.8h-.2l-.9 28.5c-.3 11-.2 17.2.3 21.2.4 4.7 3 5.9 10.9 6.5v5H867v-5c5.7-.5 8-1.8 8.7-6.5.6-4 1.3-10.8 2-22.5l1.3-25.9c.8-16.1-.2-17.6-9.6-18.5v-5h28.1l21 50.8L936.8 36zm-660.4 83.5h59c1.1-3 3.6-16.5 4.2-22.8l-5.2-.9c-1.8 6.2-3.9 11-5.9 13.2-2.6 3.1-7.9 3.9-12.7 3.9-3.7 0-6.4-.1-8.4-1.2-2.1-1.1-2.4-4.3-2.4-11V80.5h6c10.3 0 10.7 1 11.9 12h5.1v-31h-5.1c-1.2 10-1.6 11-11.9 11h-6V47.3c0-4.4.3-3.8 4.9-3.8h2c6.3 0 10.3.4 12.2 2.6 1.9 2 3.2 5.5 4.4 11.8l5.3-.3-1.3-21.1h-56.5v4.7c8 .8 8 1.7 8 15.5V99c0 13.3-.5 14.7-8.6 15.5a21 21 0 0 1-9-7.4c-2.7-3.7-6.4-10-12.2-19.6-5-8.5-11.3-21.1-13.7-26.2 12.7-5.3 22.1-14.9 22.1-31 0-10.8-5.1-19-12-23.6C273.3 2 264.4.5 251 .5h-53.8v7c11 1.2 13 2.5 13 22.2v60.5c0 19.8-2 21.1-13 22.2v7h54v-7c-12-1.1-14-2.4-14-22.2V68.5h2.8c3.3 0 5.7 2.6 7.2 6.4 4.3 10.3 9 21.6 14.2 29.5 5 7.7 9.3 13 20.7 15zm-52.6-63c-3.2 2.5-7.3 3-12.8 3h-3v-42c0-7.4.8-8 8-8 6.7 0 17.3 6 17.3 23.5 0 9-2.5 17.6-9.5 23.4m350-9.3c2-2.3 5.2-3.7 13.2-3.7h2V99c0 13.8-1 14.7-11 15.4v3.3l13.5-1.6q11.5-1.3 23-2.4c-4.8-1.2-5.5-4.2-5.5-14.7V43.5h3.2c5.8 0 9.7.5 11.8 2.8 1.7 2.1 3 5.3 4.9 13l5.2-.3-1.3-25.5h-3.7c-2 2-2.5 3-5.6 3h-47.8c-3.2 0-4.4-1-6.2-3H595c-.2 6-1 15-1.4 26h5a33 33 0 0 1 4.4-12.3m-46.8 67.3c-8-.7-9-1.6-9-15.5V83.5h1.8c2.2 0 4 2 5 4.6 3 7.2 6.3 15.2 10 20.7 4.3 6.9 8 10.7 21.8 11.6l9-1.2.2-3c-3-1-4.9-2.7-7-5.4q-2.8-3.8-8.6-13.7c-3.5-6-8-14.8-9.6-18.4 8.9-3.7 15.4-10.4 15.4-21.6 0-7.6-3.6-13.2-8.3-16.4-4.7-3.3-11-4.3-20.3-4.3h-37.4v4.7c8 .8 9 1.7 9 15.6V99c0 13.9-1 14.8-9 15.5v5h37zm-9-66.4c0-5.2.5-5.5 5.5-5.5 4.7 0 12 4 12 16.4 0 6.3-1.7 12.2-6.7 16.3-2.2 1.8-5 2.2-8.9 2.2h-1.9zm153.4 61.6q1.1-3 1.2-6.8c0-9.5-6.5-16.5-15-16.5s-15 7-15 16.5q0 4.8 1.9 8.3zm64.7.2 13.2.9a209 209 0 0 0 4.6-18.2l-5.2-.8c-3.9 8.8-7.7 14.9-12.6 18.1m-41.8-.8 21.8.1c-7.6-5.7-13-18.1-13-34.7 0-18.3 8.8-34.8 23.2-34.8 8.5 0 16 4 19.7 19.6l5.3-.8c-.7-9.5-1.2-15.1-2.2-22.1-3.3-.8-11.3-3.3-21.3-3.3-27.6 0-47 18-47 44.3 0 11.6 4.1 23.6 13.5 31.7m80.2 4.1zl3.5.5 1.8.2 3.5.4 1.7.3 4.1.6 1 .1 5 .8 1.3.2 3.8.7q1 0 1.7.3l5.2.9 2.7.5c16.7-5 28.3-20.5 28.3-43 0-25.3-16.9-42.5-38.7-42.5-28.6 0-41.6 24-41.6 44.8 0 14.7 6.2 27.6 16.6 35.2M826.3 40c10.2 0 18.9 14.2 18.9 40 0 23.2-5.7 33.9-16 33.9-11.7 0-19.8-17-19.8-40.2 0-22.4 7.6-33.7 16.9-33.7"/></svg>