<svg viewBox="0 0 1000 200" fill="none" xmlns="http://www.w3.org/2000/svg">
  <path d="M356.676 148.861a872.051 872.051 0 0 0 29.366-1.386l-47.806 48.232a1163.243 1163.243 0 0 1-38.926 2.369c19.123-16.404 38.244-32.809 57.366-49.215z" fill="#009246"/>
  <path d="M386.042 147.476c9.789-.621 19.577-1.393 29.366-2.283l-38.244 46.955a1432.711 1432.711 0 0 1-38.928 3.56l47.806-48.232z" fill="#fff"/>
  <path d="M415.408 145.192c9.789-.89 19.578-1.902 29.366-3.001l-28.682 45.445a1855.84 1855.84 0 0 1-38.929 4.512l38.245-46.956zm-232.88 50.471c38.927 3.661 77.854 4.108 116.782 2.414l57.365-49.215c-29.366.876-58.732.136-88.1-3.028l-86.047 49.829z" fill="#E92E2F"/>
  <path d="M196.871 187.357c37.334 3.578 74.668 4.075 112.001 2.516l38.242-32.809c-30.96 1.013-61.92.321-92.88-2.926l-57.363 33.219z" fill="#fff"/>
  <path d="M211.215 179.052c35.739 3.494 71.479 4.041 107.22 2.618l19.12-16.404c-32.553 1.148-65.105.507-97.658-2.824-9.562 5.536-19.124 11.072-28.682 16.61z" fill="#002F6C"/>
  <path d="M777.316 143.039c31.674-1.047 63.348-.609 95.023 1.89-27.146-5.351-52.709-10.13-76.688-14.551-4.528 3.762-10.641 7.965-18.335 12.661zm11.647-28.351c-23.894-2.213-47.789-2.871-71.685-2.408 20.089 3.94 41.761 8.039 65.015 12.476 3.806-3.746 6.029-7.074 6.67-10.068z" fill="#488A30"/>
  <path d="M761.092 140.568c7.695-4.859 13.807-9.234 18.338-13.173-23.252-4.264-44.924-8.214-65.012-12.027l46.674 25.2zm114.109 2.472l-70.01-24.701c-.642 2.81-2.865 5.954-6.672 9.521 23.979 4.605 49.54 9.593 76.682 15.18z" fill="#000"/>
  <path d="M766.438 143.455c3.627-.158 7.252-.297 10.879-.416 7.693-4.696 13.807-8.897 18.336-12.661 23.979 4.421 49.542 9.2 76.688 14.551 3.627.286 7.253.599 10.881.94-33.809-6.89-65.225-12.857-94.25-18.303-5.122 4.614-12.632 9.878-22.534 15.889zm22.525-28.767c-.641 2.994-2.864 6.322-6.67 10.068-23.254-4.437-44.926-8.536-65.015-12.476-2.734.053-5.471.121-8.206.202 24.244 4.725 50.877 9.643 79.902 15.084 5.121-4.615 7.855-8.58 8.198-12.056a537.766 537.766 0 0 0-8.209-.822z" fill="#F1DA28"/>
  <path d="M797.173 115.51c-.343 3.476-3.077 7.441-8.198 12.056 29.023 5.445 60.439 11.413 94.246 18.303-2.674-.942-5.346-1.885-8.02-2.829-27.143-5.587-52.703-10.576-76.682-15.18 3.807-3.566 6.03-6.711 6.672-9.521l-8.018-2.829zm-82.755-.142c20.088 3.813 41.76 7.763 65.012 12.027-4.531 3.939-10.643 8.314-18.338 13.173l5.346 2.886c9.902-6.011 17.412-11.274 22.533-15.889-29.023-5.441-55.655-10.359-79.898-15.084l5.345 2.887z" fill="#F1DA28"/>
  <path d="M649.655 153.896c38.929-4.909 77.854-8.747 116.782-10.442l-57.365-30.973c-29.366.876-58.732 3.369-88.099 6.67l28.682 34.745z" fill="#0071BB"/>
  <path d="M683.717 149.902c4.541-.489 9.082-.96 13.625-1.41l-40.395-32.924c-3.428.292-6.854.6-10.278.922l37.048 33.412z" fill="#F3D02F"/>
  <path d="M638.183 139.999c35.103-4.266 70.206-7.566 105.31-8.933l-11.473-6.193c-33.19 1.203-66.381 4.234-99.572 8.179l5.735 6.947z" fill="#F3D02F"/>
  <path fill-rule="evenodd" clip-rule="evenodd" d="M180.477 128.258c29.367 8.822 58.732 14.411 88.1 17.575L225.55 170.75c-34.146-3.413-68.295-9.645-102.441-19.636l57.368-22.856z" fill="#0071BB"/>
  <path fill-rule="evenodd" clip-rule="evenodd" d="M123.107 151.114c34.146 9.991 68.295 16.224 102.441 19.636l-43.021 24.913c-38.927-3.661-77.854-10.538-116.782-21.698l57.362-22.851z" fill="#FCE82B"/>
  <path d="M532.875 170.766c38.927-5.98 77.854-11.96 116.78-16.87-9.56-11.582-19.12-23.163-28.682-34.744-29.366 3.301-58.733 7.41-88.099 11.52l.001 40.094z" fill="#fff"/>
  <path d="M594.307 128.757a295.421 295.421 0 0 0 5.352 3.01c-.488.364-.982.729-1.481 1.095a289.697 289.697 0 0 1-5.322-3.013c.487-.366.97-.728 1.451-1.092zm6.347 3.554a324.8 324.8 0 0 0 5.593 2.973l-1.519 1.096a321.987 321.987 0 0 1-5.562-2.973c.5-.366.996-.732 1.488-1.096zm-4.218-5.178a317.344 317.344 0 0 0 12.039 6.518c-.488.361-.98.724-1.478 1.088a313.414 313.414 0 0 1-11.974-6.523c.476-.363.946-.723 1.413-1.083zm2.066-1.611a306.362 306.362 0 0 0 5.445 3.001c-.464.356-.931.714-1.402 1.073a300.287 300.287 0 0 1-5.414-3.002c.461-.357.918-.715 1.371-1.072zm6.457 3.544c1.861.993 3.756 1.981 5.686 2.964l-1.439 1.077a326.715 326.715 0 0 1-5.654-2.966c.473-.358.942-.718 1.407-1.075zm-42.827 21.481c3.396 2.255 6.95 4.48 10.667 6.677-.672.405-1.348.811-2.027 1.218a235.982 235.982 0 0 1-10.601-6.688c.655-.401 1.308-.803 1.961-1.207zm-2.95 1.815a224.899 224.899 0 0 0 4.721 3.087c-.672.406-1.35.812-2.031 1.221a218.135 218.135 0 0 1-4.691-3.094l2.001-1.214zm5.601 3.644a251.477 251.477 0 0 0 4.963 3.045c-.685.408-1.373.816-2.067 1.227-1.656-.998-3.3-2.014-4.933-3.05.684-.408 1.363-.816 2.037-1.222zm-8.616-1.821a229.548 229.548 0 0 0 10.465 6.708c-.699.411-1.401.822-2.108 1.235a225.676 225.676 0 0 1-10.396-6.718l2.039-1.225zm2.128-12.257a170.306 170.306 0 0 0 5.975-9.096c.699.208 1.404.415 2.114.62a167.092 167.092 0 0 1-5.908 9.078c-.732-.201-1.458-.402-2.181-.602zm-3.223-.914a172.827 172.827 0 0 0 6.075-9.118c.687.208 1.378.417 2.074.626a170.654 170.654 0 0 1-6.008 9.103c-.718-.203-1.432-.407-2.141-.611zm-3.162-.924a176.017 176.017 0 0 0 6.174-9.141c.674.212 1.352.423 2.035.634a174.836 174.836 0 0 1-6.109 9.124c-.7-.204-1.401-.41-2.1-.617zm52.428 12.576c.781-1.335 1.54-2.682 2.275-4.043.881.179 1.768.358 2.659.537a138.064 138.064 0 0 1-2.243 4.036l-2.691-.53zm2.666-4.775c.703-1.318 1.381-2.65 2.034-3.993.871.183 1.745.364 2.624.546a121.544 121.544 0 0 1-2.003 3.985c-.889-.179-1.774-.357-2.655-.538zm1.383 5.565a137.369 137.369 0 0 0 2.228-4.031c.896.178 1.796.355 2.7.532a133.735 133.735 0 0 1-2.197 4.022c-.915-.174-1.826-.349-2.731-.523zm2.609-4.76c.697-1.333 1.36-2.66 1.99-3.978.882.18 1.771.36 2.662.54a121.795 121.795 0 0 1-1.957 3.972c-.902-.177-1.8-.355-2.695-.534zm1.496 5.542c.762-1.346 1.49-2.684 2.184-4.016.91.176 1.822.351 2.74.526-.683 1.329-1.4 2.666-2.151 4.008-.929-.172-1.853-.345-2.773-.518zm2.559-4.744c.671-1.31 1.318-2.632 1.941-3.966.896.179 1.799.359 2.705.537a119.05 119.05 0 0 1-1.912 3.959c-.916-.176-1.827-.353-2.734-.53z" fill="#000"/>
  <path d="M570.158 139.772a2.856 2.856 0 0 0-.108.176c.036-.06.069-.119.108-.176z" fill="#B50037"/>
  <path d="M588.916 134.438c-7.717-1.957-15.551.333-18.758 5.334-1.584 2.495.055 5.334 3.974 6.282 3.911.95 8.511-.322 9.964-2.785 1.479-2.47 5.707-3.663 9.759-2.718 4.046.945 6.489 3.639 5.142 6.076 2.681-4.865-2.399-10.226-10.081-12.189" fill="#E92E2F"/>
  <path d="M570.158 139.772c-1.584 2.495.055 5.334 3.974 6.282 3.911.95 8.511-.322 9.964-2.785 1.479-2.47 5.707-3.663 9.759-2.718 4.046.945 6.489 3.639 5.142 6.076-2.648 4.856-12.479 7.5-20.689 5.673-8.246-1.82-11.328-7.534-8.15-12.528" fill="#002F6C"/>
  <path d="M416.092 187.636c38.928-4.909 77.855-10.89 116.783-16.87v-40.094c-29.367 4.109-58.732 8.217-88.101 11.519l-28.682 45.445z" fill="#fff"/>
  <path d="M500.338 149.879c11.848-5.981 22.692-11.802 32.537-17.423v-1.784l-2.011.281c-11.144 6.395-23.589 13.044-37.336 19.894 2.271-.321 4.54-.643 6.81-.968zm-4.487 12.701c11.243 2.843 23.585 5.431 37.024 7.803v-2.661c-10.578-1.932-20.455-4.002-29.627-6.23-2.465.365-4.931.727-7.397 1.088zm-53.261-16.927c6.178 3.31 13.165 6.41 20.959 9.308 2.271-.3 4.541-.603 6.812-.909-9.851-3.498-18.473-7.3-25.865-11.419l-1.906 3.02zm20.689 21.577c-14.552 6.607-30.227 13.345-47.021 20.141l-.167.265c2.457-.31 4.912-.625 7.369-.942 16.898-6.929 32.638-13.785 47.216-20.495-2.465.346-4.931.69-7.397 1.031z" fill="#E92E2F"/>
  <path d="M526.847 131.514a6401.169 6401.169 0 0 1-30.845 4.257l-4.037 14.264c12.754-6.358 24.379-12.547 34.882-18.521zm-44.468 6.071a2186.646 2186.646 0 0 1-30.723 3.818c7.277 3.857 15.676 7.429 25.195 10.728l5.528-14.546zm50.496 7.583v-9.197a724.1 724.1 0 0 1-23.387 12.594c7.795-1.124 15.591-2.26 23.387-3.397zm0 21.005v-9.097c-8.469 1.271-16.94 2.535-25.411 3.792 7.955 1.878 16.425 3.642 25.411 5.305zm-105.35 19.99a2956.377 2956.377 0 0 0 38.414-5.316c1.73-4.558 3.463-9.115 5.195-13.672-13.542 6.223-28.078 12.572-43.609 18.988zm56.473-7.966a8773.168 8773.168 0 0 0 38.531-5.842c-12.577-2.305-24.156-4.817-34.738-7.566l-3.793 13.408zm-58.112-6.078l-6.801 10.776a1211.237 1211.237 0 0 0 33.098-14.154 2278.787 2278.787 0 0 1-26.297 3.378zm8.518-13.497c8.067-.955 16.135-1.963 24.204-3.014-6.355-2.451-12.153-5.043-17.392-7.781l-6.812 10.795z" fill="#002F6C"/>
  <path d="M485.102 137.227l-6.547 18.143c-15.285 2.118-30.57 4.131-45.855 5.952-1.703 2.7-3.406 5.399-5.111 8.098 16.065-1.952 32.131-4.106 48.195-6.37l-6.234 17.273c3.612-.526 7.225-1.057 10.836-1.592l5.168-17.072c15.773-2.262 31.547-4.614 47.322-6.965v-7.145c-15.009 2.201-30.018 4.401-45.025 6.519l5.428-17.931c-2.726.368-5.453.731-8.177 1.09z" fill="#E92E2F"/>
  <path d="M811.511 120.569c30.96 3.247 61.921 9.05 92.879 18.262l-19.12-5.747c-29.367-8.821-58.732-14.41-88.099-17.575l14.34 5.06zm71.708 25.299c38.926 3.663 77.854 10.537 116.781 21.698l-19.123-5.748c-37.332-10.77-74.666-17.431-112.002-21.009l14.344 5.059z" fill="#002F6C"/>
  <path d="M866.486 139.965c37.068 3.565 74.137 10.19 111.203 20.896l-70.111-21.071c-31.225-9.277-62.451-15.116-93.676-18.376l52.584 18.551z" fill="#E92E2F"/>
  <path d="M813.902 121.413c31.225 3.261 62.451 9.1 93.676 18.376l-3.188-.958c-30.958-9.211-61.919-15.015-92.879-18.262l2.391.844zm54.973 19.396c37.336 3.579 74.67 10.239 112.002 21.009l-3.188-.958c-37.066-10.706-74.135-17.331-111.203-20.896.797.283 1.594.563 2.389.845z" fill="#fff"/>
  <path d="M858.43 129.046c6.791 1.165 22.409 5.442 34.881 9.356 12.473 3.919 16.199 5.858 8.325 4.562-7.876-1.301-23.494-5.247-34.882-9.036-11.39-3.783-15.115-6.055-8.324-4.882" fill="#fff"/>
  <path d="M859.111 129.265c5.721 1.707 11.484 3.421 17.287 5.144 3.059.533 6.113 1.093 9.17 1.68.581.47 1.129.979 1.64 1.523 5.854 1.731 11.747 3.471 17.681 5.219a4948.723 4948.723 0 0 0-16.863-4.251c.4.528.735 1.067 1.006 1.615a2130.844 2130.844 0 0 0-11.238-4.166 7537.618 7537.618 0 0 0-16.237-4.008c3.058.451 6.116.926 9.173 1.428-3.869-1.405-7.742-2.8-11.619-4.184z" fill="#E92E2F"/>
  <path d="M637.883 3.049c0-1.183.212-1.988.639-2.413.423-.424 1.222-.636 2.392-.636h8.932c1.17 0 1.961.212 2.381.636.418.425.625 1.23.625 2.413v6.797c0 1.183-.207 1.986-.625 2.411-.42.425-1.211.636-2.381.636h-8.932c-1.17 0-1.969-.211-2.393-.636-.427-.425-.639-1.228-.639-2.411V3.049h.001zm2.148 8.047h10.67V1.723h-10.67v9.373zm22.619 1.798L655.6 0h2.326l5.697 10.746L669.07 0h2.126l-6.751 12.894h-1.795zm11.466 0V0h12.421v1.723h-10.27v3.601h6.272v1.699h-6.272v4.097h10.369v1.774h-12.52zm16.398 0V0h10.376c.944 0 1.636.196 2.067.588.434.392.65 1.029.65 1.911v2.874c0 .884-.217 1.52-.65 1.912-.432.392-1.123.586-2.067.586h-1.895l5.893 5.023h-3.194l-5.243-5.023h-3.786v5.023h-2.151zm9.543-11.219h-7.393v4.523h7.393c.52 0 .881-.091 1.089-.275.211-.184.313-.533.313-1.05V2.998c0-.499-.103-.845-.313-1.036-.208-.191-.57-.287-1.089-.287zm19.247.048h-9.124v3.625h8.123c1.168 0 1.959.216 2.373.649.414.435.625 1.233.625 2.399v1.45c0 1.183-.211 1.986-.625 2.411-.414.425-1.205.636-2.373.636h-7.522c-1.167 0-1.962-.211-2.39-.636-.422-.425-.637-1.228-.637-2.411v-.35l2.001-.475v2.075h9.597V7.222h-8.096c-1.151 0-1.938-.213-2.365-.638-.422-.424-.636-1.228-.636-2.411V3.049c0-1.2.214-2.007.636-2.424.427-.417 1.213-.625 2.365-.625h6.873c1.098 0 1.875.198 2.334.591.457.394.686 1.129.686 2.207v.278l-1.845.522V1.723zm7.27 11.171V0h12.418v1.723h-10.271v3.601h6.272v1.699h-6.272v4.097h10.371v1.774h-12.518zm13.869 0L747.488 0h2.301l7.173 12.894h-2.375l-1.65-3.173h-8.721l-1.65 3.173h-2.123zm4.672-4.824h6.945l-3.469-6.596-3.476 6.596zm25.763-6.347h-9.12v3.625h8.123c1.164 0 1.955.216 2.375.649.414.435.619 1.233.619 2.399v1.45c0 1.183-.205 1.986-.619 2.411-.42.425-1.211.636-2.375.636h-7.521c-1.17 0-1.964-.211-2.388-.636-.425-.425-.639-1.228-.639-2.411v-.35l1.998-.475v2.075h9.596V7.222h-8.093c-1.153 0-1.939-.213-2.362-.638-.427-.424-.641-1.228-.641-2.411V3.049c0-1.2.214-2.007.641-2.424.424-.417 1.21-.625 2.363-.625h6.87c1.101 0 1.879.198 2.334.591.461.394.689 1.129.689 2.207v.278l-1.851.522V1.723h.001zm15.368 11.171V0h12.271v1.749h-10.12v4.224h5.772v1.723h-5.772v5.198h-2.151zm14.672 0V0h2.148v12.894h-2.148zm7.596 0V0h12.419v1.723h-10.269v3.601h6.271v1.699h-6.271v4.097h10.367v1.774h-12.517zm16.394 0V0h2.147v11.096h9.773v1.797h-11.92v.001zM847.072 0c2.268 0 3.915.334 4.951 1 .833.532 1.483 1.274 1.961 2.223.473.95.711 2 .711 3.147 0 2.519-.891 4.358-2.672 5.524-1.018.667-2.668.999-4.951.999h-7.096V0h7.096zm-.297 1.723h-4.648v9.374h4.648c1.997 0 3.431-.335 4.298-1.003.95-.719 1.425-1.963 1.425-3.733 0-1.703-.475-2.915-1.425-3.635-.883-.667-2.317-1.003-4.298-1.003zm20.239 11.171V0h10.377c.951 0 1.637.196 2.07.588.434.392.649 1.029.649 1.911v2.874c0 .884-.216 1.52-.649 1.912-.433.392-1.119.586-2.07.586h-1.895l5.898 5.023h-3.201l-5.239-5.023h-3.79v5.023h-2.15zm9.548-11.219h-7.398v4.523h7.398c.518 0 .875-.091 1.086-.275.206-.184.312-.533.312-1.05V2.998c0-.499-.106-.845-.312-1.036-.21-.191-.568-.287-1.086-.287zm8.247 11.219V0h12.421v1.723h-10.273v3.601h6.276v1.699h-6.276v4.097h10.374v1.774h-12.522zm16.393 0V0h10.374c.951 0 1.637.196 2.073.588.431.392.646 1.029.646 1.911v2.874c0 .884-.216 1.52-.646 1.912-.435.392-1.122.586-2.071.586h-8.225v5.023h-2.151zm9.544-11.219h-7.393v4.473h7.393c.52 0 .881-.095 1.092-.286.205-.192.309-.543.309-1.057V3.018c0-.514-.105-.867-.322-1.056-.218-.192-.579-.287-1.079-.287zm7.423 1.374c0-1.183.214-1.988.639-2.413.424-.424 1.222-.636 2.389-.636h8.938c1.17 0 1.961.212 2.378.636.417.425.628 1.23.628 2.413v6.797c0 1.183-.211 1.986-.628 2.411-.417.425-1.208.636-2.378.636h-8.938c-1.167 0-1.965-.211-2.39-.636-.425-.425-.639-1.228-.639-2.411V3.049h.001zm2.149 8.047h10.672V1.723h-10.672v9.373zm18.095 1.798V0h10.374c.947 0 1.639.196 2.07.588.436.392.65 1.029.65 1.911v2.874c0 .884-.215 1.52-.65 1.912-.432.392-1.123.586-2.07.586h-1.895l5.898 5.023h-3.201l-5.239-5.023h-3.786v5.023h-2.151zm9.546-11.219h-7.395v4.523h7.395c.514 0 .879-.091 1.087-.275.208-.184.313-.533.313-1.05V2.998c0-.499-.105-.845-.313-1.036-.208-.191-.573-.287-1.087-.287zm13.244.074v11.145h-2.15V1.749h-5.898V0h13.969v1.749h-5.921zM114.693 59.166c0 38.136-24.955 62.016-57.774 62.016C22.393 121.182 0 94.985 0 62.195 0 33.324 18.461 0 59.312 0c31.281 0 55.381 23.881 55.381 59.166zm-82.901-3.03c0 32.256 11.624 55.779 28.375 55.779 14.699 0 22.734-14.792 22.734-47.047 0-35.82-12.308-55.601-27.009-55.601-13.16.001-24.1 15.683-24.1 46.869zM520.439 75.79c0 27.454-17.471 44.645-40.443 44.645-24.17 0-39.842-18.858-39.842-42.463 0-20.782 12.92-44.772 41.517-44.772 21.895-.001 38.768 17.191 38.768 42.59zm-58.033-2.18c0 23.218 8.137 40.153 19.863 40.153 10.289 0 15.912-10.648 15.912-33.869 0-25.784-8.615-40.025-18.902-40.025-9.215.001-16.873 11.29-16.873 33.741z" fill="#1A1A1A"/>
  <path d="M151.223 53.637h11.622c14.7 0 15.214-1.1 16.922-14.111h7.521V80.21h-7.521c-1.708-14.478-2.222-15.579-16.922-15.579h-11.622v25.475c0 19.793 1.367 21.075 15.384 22.175v7.147h-57.091v-7.147c11.281-1.1 12.648-2.382 12.648-22.175V29.629c0-19.793-1.367-21.076-12.648-22.176V.306h82.559c.17 3.116 1.025 16.494 1.881 30.606l-7.521.55c-1.709-9.347-3.59-14.479-6.325-17.411-2.735-3.114-8.373-4.215-17.434-4.215h-8.034c-3.076 0-3.418 0-3.418 6.78v37.021h-.001zm247.76 45.264c0 13.855.958 14.752 10.887 15.523v5.003h-39.723v-5.003c8.136-.771 9.093-1.668 9.093-15.523V56.566c0-13.855-.957-14.752-8.494-15.521v-5.003h34.939c11.245 0 17.825 1.795 22.611 5.516 5.145 3.977 8.495 9.878 8.495 18.473 0 17.19-11.964 26.043-25.366 27.326-1.315.127-2.512.127-3.469.127l-8.974-2.179v13.596h.001zm0-20.012c1.437.514 3.229 1.027 5.144 1.027 3.83 0 11.247-3.08 11.247-20.013 0-13.342-6.819-17.447-12.204-17.447-3.949 0-4.187.642-4.187 4.618v31.815zm566.946-42.848v5.003c-9.096.897-9.573 1.411-9.215 14.882l1.196 42.975c.359 14.241.598 14.625 9.213 15.523v5.003h-37.449v-5.003c8.973-.899 9.332-1.283 9.213-15.523l-.359-45.158h-.478l-23.093 64.272h-6.459l-21.897-59.781h-.236l-.839 28.48c-.361 11.032-.242 17.19.238 21.167.479 4.747 3.109 5.901 10.889 6.543v5.003H867.1v-5.003c5.743-.513 8.017-1.796 8.732-6.543.601-3.977 1.317-10.777 1.914-22.45l1.317-25.915c.836-16.164-.12-17.575-9.571-18.472v-5.003h28.115l20.939 50.802 18.306-50.802h29.077zM305.588 119.45h59.068c1.076-3 3.59-16.488 4.186-22.773l-5.264-.868c-1.795 6.158-3.829 10.92-5.863 13.229-2.632 3.081-7.896 3.857-12.682 3.857-3.711 0-6.47-.124-8.385-1.15-2.153-1.155-2.402-4.358-2.402-11.028V80.45h6.001c10.289 0 10.647 1 11.844 12h5.155v-31h-5.155c-1.196 10-1.555 11-11.844 11h-6.001V47.348c0-4.492.259-3.898 4.806-3.898h2.031c6.343 0 10.291.474 12.205 2.656 1.913 2.051 3.23 5.496 4.427 11.783l5.266-.329c-.6-9.621-1.197-19.109-1.316-21.109h-56.418v4.74c8 .77 8 1.667 8 15.521v42.335c0 13.213-.537 14.642-8.609 15.414-3.786-1.485-6.186-3.796-9.047-7.378-2.736-3.665-6.412-9.896-12.224-19.609-4.958-8.43-11.239-21.076-13.63-26.206 12.647-5.316 22.068-14.846 22.068-30.974 0-10.812-5.115-19.044-11.953-23.626C273.185 2.087 264.309.45 250.976.45h-53.729v7.12c11 1.1 13 2.384 13 22.177v60.476c0 19.794-2 21.076-13 22.175v7.053h54v-7.053c-12-1.099-14-2.381-14-22.175V68.45h2.791c3.246 0 5.641 2.64 7.177 6.488 4.274 10.262 9.06 21.582 14.187 29.463 4.977 7.735 9.326 13.049 20.677 15.049h23.509zm-52.562-63.032c-3.247 2.565-7.349 3.032-12.82 3.032h-2.96V17.466c0-7.331.795-7.882 7.976-7.882 6.666 0 17.233 5.823 17.233 23.418 0 8.981-2.42 17.552-9.429 23.416zm349.997-9.253c1.916-2.304 5.145-3.715 13.159-3.715h2.063v55.509c0 13.816-1 14.711-11 15.48v3.211c5-.532 9.077-1.053 13.505-1.55 7.64-.859 15.233-1.657 22.872-2.392-4.766-1.173-5.377-4.178-5.377-14.75V43.45h3.185c5.743 0 9.69.507 11.724 2.809 1.796 2.175 3.112 5.372 4.907 13.047l5.265-.263c-.598-9.466-1.197-20.592-1.316-25.592h-3.707c-1.918 2-2.514 3-5.626 3H604.94c-3.23 0-4.428-1-6.223-3h-3.709c-.239 6-.959 15-1.438 26h5.026c1.553-7.001 2.994-10.368 4.427-12.286zm-46.777 67.364c-8-.771-9-1.668-9-15.523V83.45h1.732c2.272 0 3.947 2.004 5.025 4.699 2.992 7.185 6.342 15.179 9.929 20.694 4.399 6.838 8.1 10.659 21.856 11.53 3.031-.394 6.062-.771 9.093-1.153l.162-3.03c-2.993-1.026-4.906-2.692-7.06-5.386-1.914-2.565-4.548-6.927-8.615-13.726-3.47-5.901-7.896-14.752-9.574-18.344 8.857-3.72 15.437-10.392 15.437-21.681 0-7.57-3.589-13.189-8.374-16.396-4.667-3.208-10.891-4.209-20.223-4.209h-37.389v4.698c8 .77 9 1.667 9 15.523v42.335c0 13.855-1 14.752-9 15.523v4.92h37v-4.918h.001zm-9-66.455c0-5.13.446-5.515 5.472-5.515 4.667 0 12.011 4.104 12.011 16.422 0 6.285-1.773 12.248-6.68 16.354-2.271 1.797-5.123 2.115-8.951 2.115h-1.852V48.074zm153.316 61.66c.771-2.033 1.197-4.319 1.197-6.798 0-9.53-6.496-16.494-15.041-16.494-8.377 0-14.872 6.964-14.872 16.494 0 3.105.667 5.908 1.843 8.288a916.85 916.85 0 0 1 26.873-1.49zm64.74.206c4.392.227 8.782.501 13.173.826 1.696-5.412 3.525-12.676 4.654-18.127l-5.264-.888c-3.853 8.82-7.66 14.902-12.563 18.189zm-41.794-.804c7.267-.08 14.532-.054 21.798.092-7.577-5.764-13.025-18.131-13.025-34.742 0-18.282 8.854-34.788 23.212-34.788 8.496 0 15.914 4.064 19.742 19.553l5.264-.762c-.717-9.522-1.194-15.108-2.152-22.091-3.351-.763-11.369-3.301-21.297-3.301-27.641 0-47.023 18.028-47.023 44.308-.002 11.592 4.079 23.55 13.481 31.731zm80.224 4.073l.066.008c1.182.143 2.363.288 3.547.438l1.775.229c1.154.151 2.31.306 3.464.465l1.675.231c1.395.196 2.787.399 4.182.607.297.044.595.086.892.131 1.692.256 3.386.521 5.079.794.438.07.876.145 1.314.217 1.257.207 2.514.416 3.771.633.579.099 1.158.202 1.737.303 1.729.303 3.456.615 5.181.937.887.166 1.771.337 2.658.508 16.735-4.987 28.346-20.542 28.346-42.923 0-25.399-16.872-42.591-38.768-42.591-28.595 0-41.516 23.99-41.516 44.772.002 14.748 6.117 27.64 16.597 35.241zm22.529-73.339c10.288 0 18.903 14.241 18.903 40.025 0 23.22-5.623 33.869-15.914 33.869-11.724 0-19.861-16.936-19.861-40.153 0-22.452 7.659-33.741 16.872-33.741z" fill="#1A1A1A"/>
</svg>
