<?xml version="1.0" standalone="no"?>
<!DOCTYPE svg PUBLIC "-//W3C//DTD SVG 20010904//EN"
 "http://www.w3.org/TR/2001/REC-SVG-20010904/DTD/svg10.dtd">
<svg version="1.0" xmlns="http://www.w3.org/2000/svg"
 width="300.000000pt" height="300.000000pt" viewBox="0 0 300.000000 300.000000"
 preserveAspectRatio="xMidYMid meet">
<metadata>
Created by potrace 1.11, written by Peter Selinger 2001-2013
</metadata>
<g transform="translate(0.000000,300.000000) scale(0.100000,-0.100000)"
fill="#000000" stroke="none">
<path d="M475 2986 c-216 -53 -379 -270 -445 -596 -111 -547 111 -1075 471
-1119 217 -27 398 86 516 324 70 141 101 280 109 495 10 249 -25 434 -119 615
-47 92 -155 208 -227 245 -95 49 -202 61 -305 36z m131 -136 c90 -44 157 -202
195 -465 20 -133 17 -543 -4 -665 -38 -221 -100 -320 -200 -320 -73 0 -133 54
-182 164 -96 217 -132 692 -74 980 33 161 91 274 159 308 44 23 54 22 106 -2z"/>
<path d="M1080 2940 c0 -43 3 -50 20 -50 29 0 64 -19 79 -42 23 -37 30 -203
30 -708 0 -516 -7 -665 -33 -705 -9 -14 -33 -29 -56 -35 -40 -11 -40 -11 -40
-60 l0 -50 280 0 280 0 0 49 0 49 -44 11 c-95 24 -99 38 -104 384 l-4 287 105
0 c89 0 108 -3 130 -20 27 -22 47 -89 47 -160 0 -40 0 -40 40 -40 l40 0 0 290
0 290 -40 0 c-38 0 -40 -2 -40 -30 0 -54 -21 -128 -42 -146 -16 -15 -41 -19
-129 -22 l-109 -4 0 303 c0 167 4 310 9 318 13 20 195 11 237 -12 41 -21 70
-84 89 -193 8 -48 15 -88 15 -90 0 -2 10 -4 23 -4 49 0 50 2 41 226 l-9 209
-407 3 -408 2 0 -50z"/>
<path d="M1950 2943 c0 -48 0 -49 42 -63 76 -27 73 9 73 -740 0 -752 3 -718
-75 -741 -39 -12 -40 -13 -40 -61 l0 -48 265 0 265 0 0 48 0 48 -47 15 c-40
12 -51 21 -68 54 -18 36 -20 64 -23 303 l-4 262 23 0 c37 0 58 -29 85 -119
120 -404 186 -541 285 -592 31 -15 59 -19 154 -19 l115 0 0 36 c0 26 -7 41
-24 55 -46 36 -155 280 -262 585 l-53 152 50 42 c100 84 153 198 165 354 9
109 -9 210 -52 296 -38 76 -84 122 -153 154 -43 20 -65 21 -383 24 l-338 3 0
-48z m540 -109 c112 -95 135 -403 42 -584 -35 -70 -78 -100 -143 -100 l-49 0
0 329 c0 190 4 341 10 355 8 23 15 26 59 26 39 0 56 -6 81 -26z"/>
<path d="M0 805 l0 -265 500 0 500 0 0 -90 0 -90 500 0 500 0 0 -90 0 -90
-500 0 -500 0 0 -90 0 -90 665 0 665 0 0 528 0 529 -247 6 c-137 4 -661 7
-1165 7 l-918 0 0 -265z m2000 -5 l0 -90 -500 0 -500 0 0 90 0 90 500 0 500 0
0 -90z"/>
<path d="M2670 535 l0 -535 165 0 165 0 0 535 0 535 -165 0 -165 0 0 -535z"/>
</g>
</svg>
